<svg version="1.1" xmlns="http://www.w3.org/2000/svg" viewBox="0 0 2211.4844879073003 2427.497557195921" width="2211.4844879073003" height="2427.497557195921">
  <!-- svg-source:excalidraw -->
  
  <defs>
    <style class="style-fonts">
      @font-face {
        font-family: "Virgil";
        src: url("https://excalidraw.com/Virgil.woff2");
      }
      @font-face {
        font-family: "Cascadia";
        src: url("https://excalidraw.com/Cascadia.woff2");
      }
      @font-face {
        font-family: "Assistant";
        src: url("https://excalidraw.com/Assistant-Regular.woff2");
      }
    </style>
    
  </defs>
  <g stroke-linecap="round" transform="translate(1116.7467361332046 602.1250578625333) rotate(0 145.5 112.5)"><path d="M19.1 56.35 C19.1 56.35, 19.1 56.35, 19.1 56.35 M19.1 56.35 C19.1 56.35, 19.1 56.35, 19.1 56.35 M6.77 82.73 C18.04 69.81, 27.39 59.73, 57.94 23.87 M6.77 82.73 C25.13 63.38, 42.81 42.63, 57.94 23.87 M2.31 100.06 C25.09 73.75, 45.61 47.57, 75.13 16.28 M2.31 100.06 C20.13 80.24, 36.75 59.69, 75.13 16.28 M2.44 112.1 C20.37 87.59, 41.11 66.02, 92.98 7.95 M2.44 112.1 C26.19 83.76, 51.01 55.93, 92.98 7.95 M2.57 124.14 C36.24 82.89, 74.82 43.03, 105.58 5.65 M2.57 124.14 C33.78 87.4, 67.25 49.55, 105.58 5.65 M4.68 133.92 C33.36 98.7, 62.28 65.58, 117.52 4.11 M4.68 133.92 C45.25 87.23, 85.73 38.91, 117.52 4.11 M8.09 142.18 C54.94 88.87, 103.74 30.82, 130.12 1.81 M8.09 142.18 C31.9 113.38, 57.69 86.56, 130.12 1.81 M11.5 150.45 C46.8 108.38, 83.23 66.65, 141.4 1.02 M11.5 150.45 C46.6 112.52, 79.85 72.36, 141.4 1.02 M14.92 158.72 C46.17 125.08, 75.9 87.84, 151.38 1.74 M14.92 158.72 C42.82 125.8, 70.76 93.89, 151.38 1.74 M18.99 166.23 C59.75 121.26, 99.88 75.22, 161.35 2.46 M18.99 166.23 C72.22 105.38, 126.71 43.65, 161.35 2.46 M24.37 172.23 C81.28 108.31, 137.97 41.61, 171.32 3.18 M24.37 172.23 C74.27 116.67, 123.28 60.84, 171.32 3.18 M30.4 177.48 C79.99 121.4, 128.4 63.74, 181.3 3.9 M30.4 177.48 C77.46 124.56, 122.49 70.95, 181.3 3.9 M35.79 183.49 C73.43 139.12, 113.51 97.06, 189.3 6.88 M35.79 183.49 C90.15 118.97, 145.6 55.71, 189.3 6.88 M41.17 189.49 C81.85 143.07, 122.53 95.39, 197.31 9.87 M41.17 189.49 C82.42 144.06, 121.71 99.08, 197.31 9.87 M47.21 194.74 C97.13 137.59, 147.15 80.82, 205.32 12.85 M47.21 194.74 C106.1 127.84, 164.76 59.97, 205.32 12.85 M54.56 198.48 C87.22 157.04, 122.49 117.44, 213.32 15.84 M54.56 198.48 C115.58 127.52, 176.74 56.36, 213.32 15.84 M61.91 202.21 C113.25 142.62, 167.65 81.47, 221.33 18.82 M61.91 202.21 C98.41 162.21, 134.43 121.17, 221.33 18.82 M69.26 205.95 C120.9 143.08, 177.05 80.82, 229.33 21.8 M69.26 205.95 C116.43 149.92, 163.82 94.85, 229.33 21.8 M76.6 209.69 C136.63 139.65, 195.65 71.52, 236.03 26.3 M76.6 209.69 C120.36 159.81, 163.46 108.81, 236.03 26.3 M83.95 213.43 C117.85 176.03, 151.1 138, 242.72 30.79 M83.95 213.43 C135.97 153.31, 187.13 94.74, 242.72 30.79 M91.96 216.42 C146.61 152.58, 202.06 90.15, 249.41 35.29 M91.96 216.42 C132.31 168.57, 175.1 120.01, 249.41 35.29 M100.62 218.65 C138.33 176.45, 176.58 133.15, 256.11 39.78 M100.62 218.65 C137.48 174.69, 175.39 132.19, 256.11 39.78 M109.94 220.12 C160.15 161.55, 209.91 105.05, 262.8 44.27 M109.94 220.12 C146.51 180.87, 182.76 139.56, 262.8 44.27 M118.6 222.35 C162.14 173.38, 207.64 118.71, 267.53 51.03 M118.6 222.35 C171.15 160.29, 224.99 99.28, 267.53 51.03 M127.26 224.58 C179.93 163.3, 234.92 99.49, 271.6 58.54 M127.26 224.58 C184.69 158.86, 241.92 93.57, 271.6 58.54 M137.89 224.55 C175.74 180.3, 210.73 139.45, 276.32 65.3 M137.89 224.55 C169.59 188.49, 200.91 151.29, 276.32 65.3 M149.18 223.76 C191.66 177.04, 232.87 127.97, 280.39 72.81 M149.18 223.76 C183.48 186.32, 216.02 147.25, 280.39 72.81 M160.47 222.97 C195.48 183.5, 231.11 144.36, 284.46 80.33 M160.47 222.97 C206.13 172.93, 248.7 121.59, 284.46 80.33 M172.41 221.42 C194.43 194.48, 220.4 164.63, 286.56 90.1 M172.41 221.42 C209.62 179.05, 246.54 137.54, 286.56 90.1 M184.35 219.88 C214.84 183.92, 243.86 147.65, 288.66 99.88 M184.35 219.88 C210.81 189.15, 237.81 157.33, 288.66 99.88 M198.92 215.32 C223.34 184.7, 247.63 158.55, 290.11 110.41 M198.92 215.32 C232.27 177.23, 266.69 136.99, 290.11 110.41 M213.48 210.75 C236.57 181.89, 262.02 156.91, 289.59 123.21 M213.48 210.75 C227.83 191.46, 243.23 173.7, 289.59 123.21 M231.99 201.66 C246.06 181.74, 262.84 164.34, 286.44 139.02 M231.99 201.66 C253.07 177.39, 273.03 152.92, 286.44 139.02 M255.74 186.53 C259.95 180.04, 266.19 176.79, 269.52 170.69 M255.74 186.53 C260.44 181, 263.77 176.35, 269.52 170.69" stroke="#e9ecef" stroke-width="1" fill="none"></path><path d="M89.76 8.55 C102.86 2.57, 121.07 1.27, 136.61 0.47 C152.15 -0.32, 167.97 0.48, 183.02 3.76 C198.07 7.05, 213.61 13.39, 226.91 20.2 C240.21 27.01, 253.36 35.09, 262.8 44.65 C272.24 54.21, 278.85 65.91, 283.54 77.54 C288.23 89.17, 290.99 102.24, 290.93 114.43 C290.88 126.62, 288.47 139.23, 283.21 150.69 C277.94 162.14, 269.51 173.79, 259.33 183.18 C249.14 192.57, 235.64 200.69, 222.11 207.03 C208.58 213.37, 193.4 218.19, 178.16 221.21 C162.92 224.23, 146.18 226.33, 130.68 225.17 C115.17 224.01, 99.25 219.44, 85.14 214.25 C71.02 209.06, 57.45 202.49, 45.97 194.01 C34.48 185.53, 23.5 174.27, 16.23 163.39 C8.95 152.51, 4.71 140.5, 2.33 128.73 C-0.04 116.95, -0.83 104.8, 1.97 92.73 C4.77 80.66, 11.4 67.2, 19.13 56.32 C26.86 45.44, 35.53 35.63, 48.33 27.46 C61.12 19.29, 87.07 10.67, 95.9 7.29 C104.73 3.91, 100.66 5.32, 101.29 7.15" stroke="#868e96" stroke-width="2.5" fill="none" stroke-dasharray="8 10"></path></g><g transform="translate(1220.6207103348197 692.0755449790466) rotate(0 41.74198913574219 22.5)"><text x="41.74198913574219" y="0" font-family="Virgil, Segoe UI Emoji" font-size="36px" fill="#868e96" text-anchor="middle" style="white-space: pre;" direction="ltr" dominant-baseline="text-before-edge">Body</text></g><g stroke-linecap="round" transform="translate(1115.9451390533882 230.01856116402257) rotate(0 145.5 112.5)"><path d="M20.72 55.11 C20.72 55.11, 20.72 55.11, 20.72 55.11 M20.72 55.11 C20.72 55.11, 20.72 55.11, 20.72 55.11 M4.45 86.02 C18.63 68.42, 37.1 49.35, 53 30.17 M4.45 86.02 C21.35 65.15, 40.69 45.95, 53 30.17 M8.52 93.54 C24.67 74.66, 39.32 58.36, 70.85 21.84 M8.52 93.54 C32.73 65.91, 57.41 39.18, 70.85 21.84 M8 106.33 C37.1 73.27, 66.86 36.77, 93.29 8.22 M8 106.33 C39.99 69.87, 72.65 33.41, 93.29 8.22 M7.48 119.13 C28.71 95.75, 49.42 73.29, 105.89 5.92 M7.48 119.13 C42.67 80.62, 76.87 40.47, 105.89 5.92 M6.95 131.92 C38.04 91.79, 70.56 53.7, 117.83 4.38 M6.95 131.92 C43.71 88.62, 80.51 46.51, 117.83 4.38 M10.37 140.19 C48.08 99.05, 82.24 58, 130.43 2.08 M10.37 140.19 C46.83 98.05, 82.18 54.69, 130.43 2.08 M13.13 149.21 C44.54 115.21, 75.2 76.41, 141.06 2.04 M13.13 149.21 C44.91 113.14, 76.7 76.53, 141.06 2.04 M16.54 157.48 C55.34 113.89, 95.06 66.82, 151.03 2.76 M16.54 157.48 C55.67 115.51, 93.36 71.79, 151.03 2.76 M19.3 166.5 C77.85 100.63, 134.29 34.99, 161.01 3.48 M19.3 166.5 C74.17 102.78, 128.92 40.69, 161.01 3.48 M24.68 172.5 C83.44 106.42, 140.42 39.28, 170.98 4.2 M24.68 172.5 C61.54 132.29, 95.64 91.78, 170.98 4.2 M30.06 178.51 C87.87 113.04, 145.31 44.19, 180.95 4.92 M30.06 178.51 C61.8 142.06, 92.89 104.73, 180.95 4.92 M36.1 183.76 C73.13 145.46, 106.59 103.35, 190.27 6.4 M36.1 183.76 C94.81 115.13, 153.69 47.23, 190.27 6.4 M41.48 189.76 C98.7 120.37, 158.54 54.4, 198.28 9.38 M41.48 189.76 C87.85 135.67, 135.42 82.2, 198.28 9.38 M47.52 195.01 C95.37 141.91, 145.57 85.76, 205.63 13.12 M47.52 195.01 C88.73 147.76, 127.98 102.62, 205.63 13.12 M54.21 199.5 C114.63 129.13, 178.57 59.59, 213.63 16.11 M54.21 199.5 C118.89 126.69, 182.24 53.26, 213.63 16.11 M61.56 203.24 C110.81 149.55, 159.75 93.7, 221.64 19.09 M61.56 203.24 C98 159.44, 134.74 117.82, 221.64 19.09 M68.25 207.73 C125.77 142, 179.32 78.06, 230.3 21.32 M68.25 207.73 C121.22 144.26, 175.21 81.31, 230.3 21.32 M75.6 211.47 C106.39 174.04, 139.47 138.2, 236.99 25.81 M75.6 211.47 C114.64 168.66, 152.17 124.51, 236.99 25.81 M83.61 214.46 C123.68 169.55, 164.49 123.63, 243.03 31.06 M83.61 214.46 C138.1 151.28, 193.38 87.57, 243.03 31.06 M92.27 216.69 C150.37 152.24, 206.11 86.04, 249.07 36.31 M92.27 216.69 C126.87 174.97, 162.42 133.72, 249.07 36.31 M100.93 218.92 C129.06 182.72, 161.61 148.99, 255.76 40.8 M100.93 218.92 C154.07 158.22, 207.54 97.36, 255.76 40.8 M109.6 221.15 C141.22 181.4, 178.12 142.25, 261.8 46.05 M109.6 221.15 C155.92 169.36, 201.97 116.33, 261.8 46.05 M118.26 223.38 C173.55 162.18, 226.98 98.03, 267.84 51.3 M118.26 223.38 C151.13 183.58, 185.09 145.14, 267.84 51.3 M127.58 224.85 C160.01 186.9, 192.17 151.18, 272.56 58.06 M127.58 224.85 C185.07 160.15, 243.48 92.26, 272.56 58.06 M133.61 230.1 C166.15 197.61, 193.84 162.74, 277.29 64.82 M133.61 230.1 C161.72 196.97, 191.02 164.39, 277.29 64.82 M144.9 229.31 C182.88 185.11, 222.13 138.2, 282.02 71.58 M144.9 229.31 C199.76 168.1, 254.76 106.92, 282.02 71.58 M156.84 227.77 C192.34 187.45, 231.04 145.45, 286.08 79.09 M156.84 227.77 C188.94 190.06, 220.9 154.59, 286.08 79.09 M168.13 226.98 C203.52 183.74, 238.36 145.74, 287.53 89.62 M168.13 226.98 C191.56 200.21, 215.28 173.22, 287.53 89.62 M180.73 224.68 C204.61 196.99, 229.13 170.93, 288.98 100.15 M180.73 224.68 C204.81 196.97, 229.61 168.3, 288.98 100.15 M194.64 220.87 C218.85 193.53, 246.52 162.24, 290.42 110.68 M194.64 220.87 C222.04 190.85, 247.21 160.4, 290.42 110.68 M208.55 217.06 C238.31 184.71, 264.37 152.87, 294.49 118.19 M208.55 217.06 C226.51 195.3, 245.22 174.04, 294.49 118.19 M223.77 211.74 C246.48 185.21, 270.12 159.66, 289.37 136.27 M223.77 211.74 C244.68 189.35, 264.41 164.92, 289.37 136.27" stroke="#eebefa" stroke-width="1" fill="none"></path><path d="M139.38 0.15 C154.43 -2.12, 172.09 0.79, 187.09 4.14 C202.08 7.5, 216.64 13.12, 229.35 20.27 C242.07 27.42, 254.02 37.26, 263.39 47.03 C272.76 56.79, 280.94 67.42, 285.58 78.86 C290.21 90.31, 291.97 103.25, 291.19 115.69 C290.42 128.13, 286.75 142.11, 280.92 153.5 C275.08 164.89, 266.11 174.71, 256.18 184.02 C246.26 193.33, 234.6 203.09, 221.36 209.34 C208.12 215.59, 192.24 218.89, 176.75 221.52 C161.26 224.14, 144.05 226.27, 128.42 225.09 C112.8 223.91, 97.17 219.94, 82.99 214.42 C68.81 208.91, 54.61 200.49, 43.33 191.99 C32.05 183.49, 22.26 174.17, 15.3 163.43 C8.35 152.68, 3.71 139.92, 1.61 127.53 C-0.49 115.15, -0.51 101.24, 2.71 89.12 C5.94 77.01, 13.1 65.04, 20.97 54.83 C28.84 44.63, 37.95 35.7, 49.92 27.89 C61.89 20.08, 76.91 12.64, 92.79 7.97 C108.68 3.3, 135.18 0.85, 145.21 -0.11 C155.24 -1.08, 153.05 0.12, 153 2.16 M148.12 -0.61 C163.18 -2.27, 181.05 2.64, 195.66 6.81 C210.27 10.99, 223.6 17.06, 235.76 24.45 C247.92 31.83, 260.15 40.85, 268.62 51.13 C277.09 61.41, 283.04 74.25, 286.58 86.12 C290.12 97.99, 291.53 110.16, 289.86 122.33 C288.19 134.49, 282.86 147.89, 276.56 159.14 C270.27 170.38, 262.72 181.11, 252.08 189.77 C241.43 198.44, 226.93 205.59, 212.72 211.14 C198.51 216.69, 182.59 221.09, 166.79 223.1 C150.99 225.1, 133.4 225.08, 117.92 223.14 C102.43 221.21, 87.55 217.27, 73.87 211.49 C60.19 205.71, 46.44 197.66, 35.82 188.45 C25.19 179.23, 15.97 167.79, 10.13 156.22 C4.29 144.66, 1.4 131.46, 0.76 119.06 C0.12 106.65, 2.32 93.33, 6.3 81.79 C10.27 70.26, 15.78 59.86, 24.62 49.85 C33.46 39.85, 46.64 29.37, 59.33 21.74 C72.02 14.12, 86.03 7.51, 100.77 4.08 C115.51 0.65, 139.94 1.55, 147.78 1.19 C155.63 0.82, 147.86 0.27, 147.84 1.9" stroke="#1e1e1e" stroke-width="2" fill="none"></path></g><g transform="translate(1178.8871369366439 319.96904828053596) rotate(0 82.67396545410156 22.5)"><text x="82.67396545410156" y="0" font-family="Virgil, Segoe UI Emoji" font-size="36px" fill="#1e1e1e" text-anchor="middle" style="white-space: pre;" direction="ltr" dominant-baseline="text-before-edge">index.html</text></g><g stroke-linecap="round" transform="translate(771.7541322469742 897.543460727707) rotate(0 110 99.5)"><path d="M31.8 28.97 C31.8 28.97, 31.8 28.97, 31.8 28.97 M31.8 28.97 C31.8 28.97, 31.8 28.97, 31.8 28.97 M7.01 69.69 C17.89 57.21, 26.84 47.58, 56.21 13.09 M7.01 69.69 C24.67 51.11, 41.67 31.14, 56.21 13.09 M3.86 85.5 C25.42 60.59, 44.74 35.8, 72.74 6.26 M3.86 85.5 C20.75 66.8, 36.4 47.36, 72.74 6.26 M2.02 99.81 C18.37 77.18, 37.49 57.48, 85.34 3.96 M2.02 99.81 C23.81 73.71, 46.72 48.08, 85.34 3.96 M3.47 110.34 C34.22 72.48, 69.82 36.05, 97.94 1.66 M3.47 110.34 C32.01 76.63, 62.79 41.87, 97.94 1.66 M4.91 120.87 C31.43 88.21, 58.18 57.59, 109.23 0.87 M4.91 120.87 C42.43 77.79, 79.77 33.08, 109.23 0.87 M6.36 131.4 C49.3 82.52, 94.26 28.87, 118.54 2.35 M6.36 131.4 C28.21 104.86, 52.02 80.32, 118.54 2.35 M11.08 138.16 C42.79 100.29, 75.54 62.78, 127.86 3.82 M11.08 138.16 C42.68 104.12, 72.53 67.87, 127.86 3.82 M15.15 145.67 C43.35 115.69, 69.92 81.68, 137.84 4.54 M15.15 145.67 C40.24 116.06, 65.3 87.49, 137.84 4.54 M19.88 152.43 C56.36 112.79, 92.05 71.87, 146.5 6.77 M19.88 152.43 C67.12 98.49, 115.78 43.62, 146.5 6.77 M24.61 159.19 C74.62 103.38, 124.48 44.3, 153.85 10.51 M24.61 159.19 C68.67 110.39, 111.88 61.32, 153.85 10.51 M29.33 165.95 C72.81 117.11, 115.02 66.5, 161.2 14.25 M29.33 165.95 C70.61 119.79, 109.84 72.74, 161.2 14.25 M36.02 170.44 C68.48 131.83, 103.64 95.68, 169.2 17.24 M36.02 170.44 C83.08 114.46, 131.23 59.63, 169.2 17.24 M42.72 174.94 C77.43 135.16, 112.33 94.06, 176.55 20.97 M42.72 174.94 C78.3 135.96, 111.93 97.51, 176.55 20.97 M48.76 180.18 C91.04 131.69, 133.6 83.55, 183.25 25.47 M48.76 180.18 C98.92 123.38, 148.88 65.5, 183.25 25.47 M55.45 184.68 C82.41 149.67, 111.98 116.71, 188.63 31.47 M55.45 184.68 C106.76 125.24, 158.04 65.39, 188.63 31.47 M62.8 188.42 C104.83 139.58, 150.01 89.15, 194.01 37.47 M62.8 188.42 C92.93 155.53, 122.68 121.73, 194.01 37.47 M71.46 190.65 C112.08 140.33, 157.86 90.47, 199.39 43.48 M71.46 190.65 C109.04 145.6, 146.8 101.5, 199.39 43.48 M79.47 193.63 C126.6 137.97, 172.81 84.53, 204.77 49.48 M79.47 193.63 C114.02 154.6, 147.55 114.3, 204.77 49.48 M87.47 196.62 C113.23 168.32, 138.42 139.61, 208.19 57.75 M87.47 196.62 C127.07 150.81, 165.81 106.58, 208.19 57.75 M96.13 198.84 C136.02 151.96, 176.52 106.99, 211.6 66.02 M96.13 198.84 C125.22 163.76, 156.84 128.19, 211.6 66.02 M107.42 198.06 C133.54 169.45, 160.59 139.18, 215.01 74.28 M107.42 198.06 C132.8 167.35, 159.33 138.17, 215.01 74.28 M118.71 197.27 C152.05 158.4, 184.51 121.95, 218.43 82.55 M118.71 197.27 C142.51 172.2, 166.42 145.15, 218.43 82.55 M130.65 195.72 C155.61 167.84, 182.83 133.79, 218.56 94.59 M130.65 195.72 C161.49 158.76, 193.5 123.01, 218.56 94.59 M144.56 191.91 C170.9 160.89, 199.91 126.88, 218.69 106.63 M144.56 191.91 C173.87 158.34, 203.63 124.73, 218.69 106.63 M160.44 185.84 C177.46 166.04, 191.03 149.75, 218.83 118.67 M160.44 185.84 C173.91 171.06, 186.43 155.33, 218.83 118.67 M182.88 172.22 C192.71 163.11, 200.56 152.23, 209.12 142.03 M182.88 172.22 C189.91 165.02, 195.68 156.57, 209.12 142.03" stroke="#e9ecef" stroke-width="1" fill="none"></path><path d="M103.15 -0.05 C115.48 -2.14, 130.76 1.94, 143.63 5.62 C156.5 9.29, 170.11 14.61, 180.37 22 C190.64 29.38, 198.8 39.46, 205.2 49.92 C211.6 60.38, 216.58 72.87, 218.76 84.74 C220.94 96.61, 221.08 109.42, 218.28 121.12 C215.48 132.83, 209.64 145.09, 201.97 154.96 C194.3 164.83, 183.3 173.59, 172.25 180.31 C161.2 187.04, 148.45 192.21, 135.68 195.31 C122.91 198.41, 108.6 200.39, 95.63 198.91 C82.66 197.43, 69.3 192.26, 57.85 186.43 C46.41 180.59, 35.62 173.12, 26.97 163.9 C18.32 154.69, 10.31 142.52, 5.96 131.13 C1.6 119.74, 0.41 107.25, 0.84 95.55 C1.26 83.84, 3.34 72.01, 8.5 60.91 C13.67 49.81, 22.57 37.77, 31.83 28.94 C41.09 20.12, 50.57 12.71, 64.06 7.95 C77.55 3.2, 103.56 1.39, 112.79 0.43 C122.02 -0.54, 119.69 0.42, 119.43 2.15" stroke="#868e96" stroke-width="2.5" fill="none" stroke-dasharray="8 10"></path></g><g transform="translate(822.3744096318837 974.6863359996455) rotate(0 59.59797668457031 22.5)"><text x="59.59797668457031" y="0" font-family="Virgil, Segoe UI Emoji" font-size="36px" fill="#868e96" text-anchor="middle" style="white-space: pre;" direction="ltr" dominant-baseline="text-before-edge">Header</text></g><g stroke-linecap="round" transform="translate(1155.6305118781002 1083.3034828582408) rotate(0 110 99.5)"><path d="M34.74 26.22 C34.74 26.22, 34.74 26.22, 34.74 26.22 M34.74 26.22 C34.74 26.22, 34.74 26.22, 34.74 26.22 M7.97 69.21 C21.11 51.44, 36.25 36.42, 55.21 14.87 M7.97 69.21 C22.66 51.58, 38.21 33.45, 55.21 14.87 M2.2 88.04 C23.03 64.46, 45.55 37.24, 72.4 7.29 M2.2 88.04 C29.07 57.61, 55.63 28.82, 72.4 7.29 M2.34 100.08 C24.45 78.06, 44.1 54.01, 85 4.99 M2.34 100.08 C20.52 79.72, 37.37 60.46, 85 4.99 M3.13 111.37 C38.58 69.96, 74.95 32.67, 98.25 1.94 M3.13 111.37 C29.51 79.29, 58.77 46.55, 98.25 1.94 M4.57 121.9 C40.26 78.94, 73.68 40.66, 110.85 -0.36 M4.57 121.9 C36.81 87.83, 66.64 52.3, 110.85 -0.36 M6.67 131.68 C37.81 95.67, 68.36 58.93, 119.51 1.87 M6.67 131.68 C37.84 93.69, 68.75 57.49, 119.51 1.87 M10.74 139.19 C40.78 101.58, 70.55 68.53, 128.83 3.34 M10.74 139.19 C53.81 89.69, 97.05 39.03, 128.83 3.34 M14.81 146.7 C55.77 100.83, 96.69 52.51, 137.49 5.57 M14.81 146.7 C46.66 111.23, 77.86 74.67, 137.49 5.57 M18.88 154.21 C60.4 105.22, 103.26 55.33, 146.81 7.05 M18.88 154.21 C54.83 113.5, 90.18 72.68, 146.81 7.05 M22.95 161.73 C72 103.95, 121.15 46.19, 154.82 10.03 M22.95 161.73 C73.5 101, 124.65 41.41, 154.82 10.03 M28.99 166.98 C70.06 123.42, 109.62 77.76, 162.17 13.77 M28.99 166.98 C81.45 107.34, 133.33 46.12, 162.17 13.77 M35.68 171.47 C73.7 126.46, 112 82.64, 169.52 17.51 M35.68 171.47 C72.46 128.96, 109.46 84.93, 169.52 17.51 M41.72 176.72 C85.49 127.1, 131.8 74.86, 176.87 21.25 M41.72 176.72 C85.21 125.91, 127.31 76.9, 176.87 21.25 M48.41 181.21 C85.07 139.29, 125.37 97.94, 184.22 24.99 M48.41 181.21 C100.4 119.74, 152.51 59.74, 184.22 24.99 M55.11 185.7 C91.59 145.33, 124.2 103.84, 189.6 30.99 M55.11 185.7 C84.85 151.89, 113.97 119.02, 189.6 30.99 M63.11 188.69 C116.16 129.96, 165.88 71.7, 194.32 37.75 M63.11 188.69 C111.57 132.53, 161.39 76.39, 194.32 37.75 M71.77 190.92 C113.02 142.42, 155.66 96.52, 199.71 43.75 M71.77 190.92 C105.41 149.95, 139.65 109.45, 199.71 43.75 M79.78 193.9 C106.3 163.52, 134.23 131.31, 205.09 49.75 M79.78 193.9 C126.9 140.07, 175.46 85.19, 205.09 49.75 M87.79 196.89 C117.11 164.56, 146.75 130.29, 209.81 56.51 M87.79 196.89 C115.15 166.7, 141.14 136.18, 209.81 56.51 M97.76 197.61 C141.77 148.49, 182.05 98.83, 212.57 65.53 M97.76 197.61 C138.31 152.43, 177.88 107.16, 212.57 65.53 M108.39 197.57 C141.98 159.84, 172.14 120.79, 215.33 74.56 M108.39 197.57 C132.01 170.92, 154.79 143.89, 215.33 74.56 M119.68 196.78 C141.13 169.57, 164.42 147.7, 218.09 83.58 M119.68 196.78 C149.71 163.33, 179.75 129.46, 218.09 83.58 M130.96 195.99 C158.87 162.99, 187.78 131.47, 218.87 94.86 M130.96 195.99 C164.64 157.94, 197.15 119.87, 218.87 94.86 M145.53 191.43 C169.54 163.15, 193.3 135.94, 218.35 107.66 M145.53 191.43 C162.96 170.26, 182.5 148.9, 218.35 107.66 M160.75 186.11 C173.65 170.9, 183.82 156.7, 217.17 121.21 M160.75 186.11 C173.8 169.5, 188.22 154.16, 217.17 121.21 M183.85 171.74 C190.98 166.09, 197.18 156.73, 206.15 146.08 M183.85 171.74 C190.04 163.71, 196.66 156.47, 206.15 146.08" stroke="#e9ecef" stroke-width="1" fill="none"></path><path d="M107.82 -0.82 C120.47 -2.3, 135.39 2.69, 147.98 6.91 C160.57 11.13, 173.23 16.67, 183.34 24.5 C193.45 32.34, 202.66 43.34, 208.65 53.92 C214.64 64.49, 217.9 76.1, 219.29 87.94 C220.69 99.78, 220.51 113.14, 217.02 124.98 C213.53 136.82, 206.22 149.42, 198.33 159 C190.44 168.57, 180.84 176.25, 169.66 182.43 C158.49 188.62, 144.24 193.53, 131.29 196.12 C118.35 198.71, 105.11 199.9, 92 197.98 C78.88 196.07, 64.19 190.69, 52.61 184.61 C41.03 178.53, 30.42 170.92, 22.5 161.52 C14.57 152.12, 8.74 139.79, 5.07 128.2 C1.4 116.62, -0.58 103.91, 0.49 92 C1.55 80.1, 5.8 67.68, 11.48 56.76 C17.16 45.83, 25.07 34.6, 34.55 26.45 C44.02 18.29, 54.09 12.15, 68.33 7.82 C82.57 3.48, 109.77 1.18, 119.98 0.45 C130.18 -0.28, 129.75 1.99, 129.56 3.46" stroke="#868e96" stroke-width="2.5" fill="none" stroke-dasharray="8 10"></path></g><g transform="translate(1227.7067829153534 1160.4463581301793) rotate(0 38.14198303222656 22.5)"><text x="38.14198303222656" y="0" font-family="Virgil, Segoe UI Emoji" font-size="36px" fill="#868e96" text-anchor="middle" style="white-space: pre;" direction="ltr" dominant-baseline="text-before-edge">Main</text></g><g stroke-linecap="round" transform="translate(1145.4318933552795 1447.4184423092133) rotate(0 124.17709616725915 102.5)"><path d="M24.48 41.15 C24.48 41.15, 24.48 41.15, 24.48 41.15 M24.48 41.15 C24.48 41.15, 24.48 41.15, 24.48 41.15 M6.24 74.33 C21.84 58.86, 34.07 44.14, 56.1 16.97 M6.24 74.33 C24.71 52.48, 43.24 30.72, 56.1 16.97 M3.75 89.39 C24.4 65.89, 41.8 44.28, 70.01 13.16 M3.75 89.39 C27.14 62.54, 50.26 34.71, 70.01 13.16 M1.26 104.45 C31.52 71.41, 61.41 35.16, 85.24 7.84 M1.26 104.45 C33.73 69.34, 64.65 32.95, 85.24 7.84 M2.05 115.73 C24.04 88.87, 50.08 59.38, 99.8 3.28 M2.05 115.73 C28.04 85.74, 55.67 53.86, 99.8 3.28 M4.81 124.75 C47.39 74.09, 87.43 26.42, 111.09 2.49 M4.81 124.75 C34.75 89.82, 66.46 53.3, 111.09 2.49 M7.56 133.78 C33.34 107.68, 55.32 80.51, 121.72 2.46 M7.56 133.78 C42.09 93.28, 76.79 52.75, 121.72 2.46 M10.32 142.8 C58.85 86.39, 106.57 34.55, 133 1.67 M10.32 142.8 C57.99 89.82, 103.41 36.03, 133 1.67 M15.05 149.56 C54.6 102.27, 95.76 58.34, 142.98 2.39 M15.05 149.56 C48.78 110.88, 80.3 73.04, 142.98 2.39 M20.43 155.56 C65.27 100.42, 113.55 45.86, 151.64 4.62 M20.43 155.56 C55.21 116.05, 88.99 75.84, 151.64 4.62 M25.15 162.32 C59.54 119.08, 96.63 77, 160.3 6.85 M25.15 162.32 C78.52 100.33, 131.93 37.63, 160.3 6.85 M30.54 168.32 C69.82 122.47, 110.45 77.9, 169.62 8.32 M30.54 168.32 C65.79 125.75, 103.02 83.91, 169.62 8.32 M35.92 174.32 C74.99 129.48, 115.47 83.23, 178.28 10.55 M35.92 174.32 C82.66 119.78, 129.67 64.51, 178.28 10.55 M42.61 178.82 C92.12 125.27, 140.77 69.72, 185.63 14.29 M42.61 178.82 C83.34 131, 123.83 83.37, 185.63 14.29 M49.96 182.56 C92.77 132.07, 136.28 81.76, 192.33 18.78 M49.96 182.56 C90.74 135.59, 132.46 87.33, 192.33 18.78 M56.65 187.05 C97.17 142.41, 135.6 99.45, 199.02 23.28 M56.65 187.05 C104.25 131.12, 150.96 76.78, 199.02 23.28 M63.35 191.54 C94.33 154.04, 126.11 118.32, 205.71 27.77 M63.35 191.54 C100.44 145.98, 140.11 103.17, 205.71 27.77 M70.7 195.28 C107.08 153.03, 145.06 108.89, 212.41 32.27 M70.7 195.28 C124.8 131.24, 180.59 66.94, 212.41 32.27 M79.36 197.51 C115.25 153.67, 153.6 110.94, 217.79 38.27 M79.36 197.51 C114.82 153.8, 152.9 109.72, 217.79 38.27 M88.68 198.99 C139.9 140.12, 194.09 77.29, 223.17 44.27 M88.68 198.99 C132.49 149.84, 176.34 98.41, 223.17 44.27 M97.34 201.22 C125.18 172.2, 153.02 139.72, 228.55 50.28 M97.34 201.22 C132.42 162.06, 164.88 123.25, 228.55 50.28 M106 203.45 C133.5 170.57, 161.44 137.61, 233.93 56.28 M106 203.45 C134.11 171.54, 161.42 142.23, 233.93 56.28 M115.98 204.17 C153.4 156.47, 193.19 110.61, 238.66 63.04 M115.98 204.17 C143.14 174.21, 169.92 140.41, 238.66 63.04 M126.61 204.13 C151.88 176.77, 176.93 144.94, 241.42 72.06 M126.61 204.13 C172.46 151.37, 218.04 99.28, 241.42 72.06 M137.89 203.34 C166.31 171.45, 191.89 139.08, 244.17 81.08 M137.89 203.34 C171.67 165.36, 203.56 126.89, 244.17 81.08 M148.52 203.31 C179.48 165.94, 209.93 133.34, 246.93 90.1 M148.52 203.31 C169.73 176.72, 191.82 150.13, 246.93 90.1 M161.78 200.26 C195.23 160.14, 228.37 123.03, 249.03 99.88 M161.78 200.26 C188.3 169.97, 214.16 141.77, 249.03 99.88 M177 194.94 C199.88 167.07, 225.7 138.91, 246.54 114.94 M177 194.94 C200.63 167.45, 224.61 140.76, 246.54 114.94 M192.88 188.87 C203.82 178.17, 214.04 163.54, 244.71 129.24 M192.88 188.87 C206.44 171.79, 220.54 155.04, 244.71 129.24" stroke="#eebefa" stroke-width="1" fill="none"></path><path d="M95.52 3.4 C108.28 -0.49, 125.06 0.27, 139.09 1.46 C153.11 2.65, 167.22 5.29, 179.66 10.54 C192.1 15.8, 204.01 24.46, 213.72 32.99 C223.42 41.52, 232.06 51.26, 237.9 61.72 C243.74 72.19, 247.84 83.91, 248.76 95.76 C249.68 107.62, 247.72 121.62, 243.43 132.88 C239.13 144.13, 231.44 154.03, 223 163.3 C214.56 172.57, 204.41 181.9, 192.78 188.47 C181.15 195.05, 167.05 200.17, 153.24 202.73 C139.42 205.29, 124.09 205.22, 109.87 203.84 C95.65 202.47, 80.56 199.72, 67.89 194.49 C55.23 189.26, 43.46 180.92, 33.89 172.47 C24.33 164.02, 16.12 154.44, 10.5 143.78 C4.88 133.12, 0.91 120.21, 0.19 108.53 C-0.53 96.85, 2.12 84.97, 6.2 73.71 C10.28 62.44, 16.37 50.37, 24.67 40.94 C32.97 31.51, 43.66 23.68, 56.01 17.14 C68.35 10.6, 90.96 4.01, 98.76 1.69 C106.56 -0.62, 102.49 1.47, 102.81 3.25 M166.24 4.76 C179.87 7.19, 193.35 16.5, 203.92 24.1 C214.5 31.71, 222.42 40.7, 229.68 50.42 C236.93 60.15, 244.52 71.21, 247.47 82.45 C250.43 93.69, 250.03 105.9, 247.41 117.85 C244.8 129.8, 238.62 143.94, 231.77 154.16 C224.92 164.39, 217.12 171.73, 206.32 179.2 C195.51 186.66, 180.24 194.83, 166.96 198.98 C153.68 203.12, 140.53 203.85, 126.66 204.05 C112.79 204.25, 97.25 204.12, 83.73 200.17 C70.2 196.21, 56.53 187.84, 45.52 180.32 C34.51 172.8, 25.11 164.92, 17.66 155.06 C10.21 145.2, 3.58 132.73, 0.83 121.16 C-1.92 109.6, -1.26 97.14, 1.17 85.67 C3.6 74.21, 8.15 62.54, 15.39 52.34 C22.63 42.15, 33.86 32.14, 44.6 24.52 C55.34 16.89, 66.89 10.5, 79.84 6.58 C92.8 2.65, 107.92 0.92, 122.32 0.97 C136.72 1.01, 158.98 5.69, 166.24 6.85 C173.5 8, 166.63 6.68, 165.9 7.89" stroke="#1e1e1e" stroke-width="2" fill="none"></path></g><g transform="translate(1190.0865727424084 1514.9399972375923) rotate(0 79.71595001220703 35)"><text x="79.71595001220703" y="0" font-family="Virgil, Segoe UI Emoji" font-size="28px" fill="#1e1e1e" text-anchor="middle" style="white-space: pre;" direction="ltr" dominant-baseline="text-before-edge">div</text><text x="79.71595001220703" y="35" font-family="Virgil, Segoe UI Emoji" font-size="28px" fill="#1e1e1e" text-anchor="middle" style="white-space: pre;" direction="ltr" dominant-baseline="text-before-edge">id="counter"</text></g><g stroke-linecap="round" transform="translate(816.1274214588225 1869.5381789757307) rotate(0 124.17709616725915 102.5)"><path d="M31.18 35.05 C31.18 35.05, 31.18 35.05, 31.18 35.05 M31.18 35.05 C31.18 35.05, 31.18 35.05, 31.18 35.05 M12.94 68.23 C24.34 55.14, 35.84 42.73, 56.9 17.66 M12.94 68.23 C28.78 50.35, 42.41 33.31, 56.9 17.66 M9.14 84.8 C31.52 59.57, 51.36 36.27, 68.84 16.12 M9.14 84.8 C26.32 66.25, 43.42 46.57, 68.84 16.12 M4.68 102.12 C26.03 79.84, 45.47 55.77, 83.41 11.56 M4.68 102.12 C31.27 73.01, 55.59 44.5, 83.41 11.56 M6.13 112.65 C39.31 75.7, 72.83 32.8, 97.32 7.75 M6.13 112.65 C34.49 79.88, 61.73 48.45, 97.32 7.75 M8.23 122.43 C38.16 85.34, 69.63 52.64, 111.23 3.94 M8.23 122.43 C32.88 92.05, 58.34 63.87, 111.23 3.94 M7.71 135.22 C50.83 87.66, 90.62 39.53, 121.2 4.66 M7.71 135.22 C39.9 97.3, 71.6 59.08, 121.2 4.66 M12.43 141.98 C56.76 92.05, 100.11 43.83, 131.18 5.38 M12.43 141.98 C57.38 90.29, 103.91 39.43, 131.18 5.38 M16.5 149.49 C62.49 94.2, 107.22 43.32, 141.81 5.35 M16.5 149.49 C59.12 99.79, 103.25 51.15, 141.81 5.35 M21.23 156.25 C60.7 109.01, 100.53 62.55, 152.44 5.31 M21.23 156.25 C59.07 111.76, 97.54 68.01, 152.44 5.31 M25.3 163.77 C58.27 122.38, 95.54 81.74, 160.44 8.29 M25.3 163.77 C62.56 120.57, 100.45 76.58, 160.44 8.29 M30.68 169.77 C76.76 119.46, 122.48 66.1, 169.11 10.52 M30.68 169.77 C86.17 109.13, 139.39 46.14, 169.11 10.52 M36.71 175.02 C89.08 118.12, 137.95 58.7, 177.11 13.51 M36.71 175.02 C77.89 126.44, 120.33 79.69, 177.11 13.51 M43.41 179.51 C79.81 136.41, 114.73 95.18, 185.77 15.74 M43.41 179.51 C75.74 144.72, 105.64 110.16, 185.77 15.74 M50.1 184 C85.69 142.2, 123.79 100.9, 193.78 18.72 M50.1 184 C86.92 141.49, 125.01 96.56, 193.78 18.72 M56.8 188.5 C91.54 147.17, 127.02 107.51, 200.47 23.22 M56.8 188.5 C108.41 127.96, 161.97 67.59, 200.47 23.22 M63.49 192.99 C107.18 146.3, 148.14 97.08, 206.51 28.47 M63.49 192.99 C100.41 152.74, 134.67 113.07, 206.51 28.47 M71.5 195.98 C116.46 145.48, 159.59 95.9, 213.2 32.96 M71.5 195.98 C121.31 138.15, 170.65 81.94, 213.2 32.96 M80.16 198.21 C132.81 139.04, 183.35 81.67, 219.24 38.21 M80.16 198.21 C135.75 136, 191.83 72.28, 219.24 38.21 M88.16 201.19 C142.34 139.5, 194.77 80.64, 225.94 42.7 M88.16 201.19 C133.59 151.35, 177.29 101.93, 225.94 42.7 M96.17 204.17 C135.52 158.66, 178.85 110.86, 230.66 49.46 M96.17 204.17 C128.68 167.38, 161.24 129.88, 230.66 49.46 M104.17 207.16 C138.27 163.89, 175.96 125.56, 234.73 56.97 M104.17 207.16 C151.19 151.42, 201.42 95.2, 234.73 56.97 M114.8 207.12 C145.04 171.18, 180.47 134.03, 239.46 63.73 M114.8 207.12 C140.61 177.23, 167.23 147.21, 239.46 63.73 M124.78 207.84 C157.9 170.55, 190 132.38, 243.53 71.24 M124.78 207.84 C150.27 175.46, 179.29 144.69, 243.53 71.24 M135.41 207.81 C174.08 161.06, 216.25 115.83, 245.63 81.02 M135.41 207.81 C166.87 169.26, 200.26 130.15, 245.63 81.02 M146.7 207.02 C186.98 161.1, 223.59 117.57, 247.73 90.8 M146.7 207.02 C183.77 165.54, 220.27 122.67, 247.73 90.8 M160.61 203.21 C182.1 180.14, 201.62 157.05, 249.83 100.57 M160.61 203.21 C180.36 179.44, 200.6 157.47, 249.83 100.57 M175.17 198.65 C194.88 174.33, 215.96 152.71, 253.9 108.08 M175.17 198.65 C195.23 175.41, 215.16 152.81, 253.9 108.08 M187.77 196.35 C206.58 177.36, 220.21 160.27, 249.44 125.41 M187.77 196.35 C201.68 180.53, 217.1 164.01, 249.44 125.41" stroke="#eebefa" stroke-width="1" fill="none"></path><path d="M106.32 0.22 C119.29 -2.83, 134.52 -0.27, 148.3 2.12 C162.08 4.51, 176.78 8.39, 189.02 14.56 C201.25 20.74, 213.02 30.07, 221.7 39.19 C230.39 48.31, 236.53 58.42, 241.12 69.3 C245.72 80.19, 249.48 92.65, 249.28 104.49 C249.07 116.34, 245.15 129.22, 239.89 140.37 C234.64 151.51, 227.27 162.66, 217.75 171.35 C208.22 180.03, 195.24 187.01, 182.76 192.46 C170.28 197.91, 156.7 202.24, 142.88 204.06 C129.06 205.89, 113.69 205.91, 99.82 203.44 C85.95 200.97, 71.89 195.35, 59.67 189.23 C47.45 183.12, 35.27 175.95, 26.49 166.75 C17.7 157.54, 11.35 145.34, 6.94 134 C2.54 122.65, -0.14 110.35, 0.07 98.68 C0.27 87.01, 3.02 74.53, 8.17 63.97 C13.31 53.41, 21.5 43.95, 30.95 35.32 C40.4 26.69, 50.42 18.09, 64.89 12.2 C79.36 6.31, 107.06 1.55, 117.77 -0.01 C128.48 -1.56, 129.04 1.2, 129.16 2.86 M181.43 10.67 C194.4 14.24, 205.57 22.53, 214.93 31.04 C224.3 39.55, 232.18 50.65, 237.63 61.73 C243.07 72.81, 246.9 85.81, 247.6 97.52 C248.29 109.24, 245.97 120.86, 241.79 132.02 C237.62 143.19, 230.6 155.3, 222.54 164.52 C214.48 173.73, 204.95 181.15, 193.44 187.32 C181.92 193.49, 167.28 198.71, 153.43 201.54 C139.59 204.36, 124.48 205.34, 110.36 204.27 C96.24 203.21, 81.44 200.5, 68.72 195.15 C55.99 189.79, 43.87 180.71, 34 172.16 C24.14 163.61, 15.06 154.75, 9.53 143.87 C4 132.99, 1.29 118.73, 0.83 106.89 C0.37 95.05, 2.85 84.04, 6.75 72.81 C10.65 61.59, 15.73 48.66, 24.23 39.52 C32.74 30.38, 46.04 23.96, 57.79 17.99 C69.54 12.01, 81.2 6.59, 94.75 3.67 C108.29 0.74, 124.71 -0.66, 139.08 0.45 C153.45 1.56, 174.11 8.04, 180.96 10.3 C187.8 12.56, 181.31 12.41, 180.14 14" stroke="#1e1e1e" stroke-width="2" fill="none"></path></g><g transform="translate(866.5221063391155 1937.0597339041096) rotate(0 73.97594451904297 35)"><text x="73.97594451904297" y="0" font-family="Virgil, Segoe UI Emoji" font-size="28px" fill="#1e1e1e" text-anchor="middle" style="white-space: pre;" direction="ltr" dominant-baseline="text-before-edge">p</text><text x="73.97594451904297" y="35" font-family="Virgil, Segoe UI Emoji" font-size="28px" fill="#1e1e1e" text-anchor="middle" style="white-space: pre;" direction="ltr" dominant-baseline="text-before-edge">id="display"</text></g><g stroke-linecap="round" transform="translate(744.8904161896994 2168.590779119357) rotate(0 124.17709616725915 102.5)"><path d="M35.62 29.64 C35.62 29.64, 35.62 29.64, 35.62 29.64 M35.62 29.64 C35.62 29.64, 35.62 29.64, 35.62 29.64 M5.57 76.39 C23.81 57.8, 38.38 39.34, 56.09 18.28 M5.57 76.39 C24.48 54.09, 43.16 33.17, 56.09 18.28 M0.46 94.47 C27.9 66.08, 52.63 34.26, 73.93 9.94 M0.46 94.47 C16.44 75.89, 30.92 58.75, 73.93 9.94 M1.9 105 C26.45 72.58, 55.52 43.33, 87.19 6.89 M1.9 105 C30.86 73.56, 58.64 41.1, 87.19 6.89 M3.35 115.53 C29.33 84.82, 57.75 54.63, 100.44 3.84 M3.35 115.53 C32.86 83.57, 60.59 50.83, 100.44 3.84 M4.79 126.07 C28.06 101.66, 49.78 74.74, 113.7 0.78 M4.79 126.07 C43.8 82.08, 80.25 39.92, 113.7 0.78 M7.55 135.09 C41.75 95.1, 72.35 59.33, 123.67 1.5 M7.55 135.09 C48.04 89.67, 88.56 42.88, 123.67 1.5 M11.62 142.6 C50.78 99.39, 86.23 57.46, 133.64 2.22 M11.62 142.6 C42.94 108.9, 72.35 73.96, 133.64 2.22 M16.34 149.36 C41.48 120.55, 66.71 90.29, 142.96 3.7 M16.34 149.36 C65.07 91.84, 115.54 36.51, 142.96 3.7 M20.41 156.87 C70.73 99.71, 120.29 43.32, 152.94 4.42 M20.41 156.87 C54.2 119.38, 86.49 82.08, 152.94 4.42 M25.14 163.63 C61.08 119.07, 98.23 77.64, 161.6 6.65 M25.14 163.63 C61.22 121.78, 96.26 80.16, 161.6 6.65 M31.18 168.88 C69.76 124.01, 112.23 76.04, 169.6 9.63 M31.18 168.88 C63.5 130.7, 96.37 92.46, 169.6 9.63 M37.21 174.13 C93.19 112.38, 146.35 48.44, 177.61 12.62 M37.21 174.13 C86.31 118.68, 134.82 62.16, 177.61 12.62 M43.91 178.62 C98.43 120.21, 149.95 57.85, 185.62 15.6 M43.91 178.62 C88.63 126.27, 132.83 74.63, 185.62 15.6 M49.95 183.87 C85.99 140.58, 124.64 95.98, 193.62 18.59 M49.95 183.87 C88.87 140.16, 127.82 96.68, 193.62 18.59 M56.64 188.36 C92.75 144.62, 131.68 98.57, 200.32 23.08 M56.64 188.36 C94.81 145.14, 132.12 102.26, 200.32 23.08 M64.64 191.35 C102.47 147.55, 144.55 98.74, 206.35 28.33 M64.64 191.35 C116.79 131.6, 169.68 70.87, 206.35 28.33 M71.99 195.09 C107 150.73, 147.13 108.29, 212.39 33.58 M71.99 195.09 C103.97 158.5, 136.01 120.72, 212.39 33.58 M80 198.07 C136.25 135.03, 191.38 72.34, 219.08 38.07 M80 198.07 C117.72 154.12, 155.23 109.75, 219.08 38.07 M88.01 201.05 C144.62 136.64, 198.54 76.69, 225.12 43.32 M88.01 201.05 C129.82 154.6, 170.17 107.7, 225.12 43.32 M97.32 202.53 C133.99 159.27, 171.07 115.54, 229.85 50.08 M97.32 202.53 C137.74 156.56, 178.67 107.93, 229.85 50.08 M107.3 203.25 C146.6 156.74, 185.5 111.9, 233.92 57.59 M107.3 203.25 C144.35 162.1, 182.94 118.37, 233.92 57.59 M117.27 203.97 C158.99 151.19, 207.3 98.91, 238.64 64.35 M117.27 203.97 C149.28 169.35, 180.5 133.44, 238.64 64.35 M127.25 204.69 C153.43 176.71, 179.93 144.89, 242.71 71.86 M127.25 204.69 C168.96 157.43, 211.15 108.01, 242.71 71.86 M138.53 203.9 C179.73 157.94, 219.51 110.3, 245.47 80.88 M138.53 203.9 C161.36 175.07, 184.59 148.98, 245.47 80.88 M151.79 200.85 C186.89 164.44, 219.78 126.16, 246.26 92.17 M151.79 200.85 C171.4 176.86, 192.19 153.3, 246.26 92.17 M165.04 197.79 C186.74 173.96, 205.73 151.26, 247.05 103.45 M165.04 197.79 C194.83 161.85, 225.22 126.7, 247.05 103.45 M177.64 195.5 C194.95 173.29, 214.85 151.61, 245.87 117.01 M177.64 195.5 C196.81 172.52, 217.24 150.71, 245.87 117.01 M198.77 183.39 C210.96 168.75, 226.94 150.09, 240.1 135.84 M198.77 183.39 C206.27 173.47, 215.5 163.39, 240.1 135.84" stroke="#eebefa" stroke-width="1" fill="none"></path><path d="M155.88 4.41 C169.42 5.83, 183.38 12.04, 195.13 18.71 C206.87 25.39, 218.17 35.1, 226.37 44.48 C234.57 53.86, 240.84 63.77, 244.32 74.99 C247.79 86.21, 248.53 99.89, 247.21 111.8 C245.9 123.72, 242.16 135.89, 236.42 146.47 C230.68 157.04, 222.56 167.18, 212.75 175.24 C202.94 183.29, 190.58 189.85, 177.58 194.8 C164.59 199.75, 149.14 203.73, 134.79 204.92 C120.44 206.12, 105 204.91, 91.5 201.96 C77.99 199.01, 65.14 193.86, 53.76 187.23 C42.39 180.59, 31.39 171.64, 23.24 162.14 C15.1 152.65, 8.8 141.6, 4.9 130.26 C0.99 118.92, -1.25 106, -0.19 94.11 C0.87 82.22, 5.24 69.72, 11.24 58.93 C17.23 48.15, 25.68 37.68, 35.8 29.43 C45.92 21.17, 58.98 14.2, 71.95 9.41 C84.91 4.62, 98.63 1.57, 113.58 0.66 C128.54 -0.25, 152.98 2.75, 161.66 3.94 C170.35 5.13, 166.28 6.12, 165.69 7.82 M171.93 6.94 C185.11 9.35, 197.08 17.57, 207.65 25.5 C218.22 33.42, 228.71 43.79, 235.36 54.51 C242.01 65.22, 245.82 78.16, 247.55 89.81 C249.28 101.46, 248.58 112.98, 245.74 124.38 C242.9 135.79, 237.83 148.5, 230.52 158.26 C223.2 168.01, 212.99 175.92, 201.84 182.94 C190.69 189.95, 177.15 196.81, 163.61 200.33 C150.07 203.84, 135.09 204.41, 120.61 204.02 C106.13 203.63, 90.05 202.4, 76.75 197.98 C63.44 193.57, 50.98 185.41, 40.78 177.52 C30.58 169.62, 22.21 160.93, 15.52 150.59 C8.84 140.26, 2.72 126.96, 0.65 115.5 C-1.41 104.04, 0.01 93.09, 3.14 81.84 C6.26 70.59, 11.72 57.97, 19.38 47.99 C27.04 38.01, 37.85 29.14, 49.08 21.95 C60.31 14.77, 73.27 8.53, 86.78 4.86 C100.28 1.2, 115.95 -0.61, 130.11 -0.03 C144.26 0.56, 165.03 6.82, 171.71 8.36 C178.38 9.91, 170.85 8.04, 170.16 9.25" stroke="#1e1e1e" stroke-width="2" fill="none"></path></g><g transform="translate(794.0250989337619 2236.112334047736) rotate(0 75.23594665527344 35)"><text x="75.23594665527344" y="0" font-family="Virgil, Segoe UI Emoji" font-size="28px" fill="#1e1e1e" text-anchor="middle" style="white-space: pre;" direction="ltr" dominant-baseline="text-before-edge">span</text><text x="75.23594665527344" y="35" font-family="Virgil, Segoe UI Emoji" font-size="28px" fill="#1e1e1e" text-anchor="middle" style="white-space: pre;" direction="ltr" dominant-baseline="text-before-edge">id="output"</text></g><g stroke-linecap="round" transform="translate(1544.8993837319817 1831.1926575772268) rotate(0 124.17709616725915 102.5)"><path d="M34.83 30.28 C34.83 30.28, 34.83 30.28, 34.83 30.28 M34.83 30.28 C34.83 30.28, 34.83 30.28, 34.83 30.28 M6.76 74.77 C23.8 56.78, 36.85 38.03, 55.96 18.17 M6.76 74.77 C22.21 56.55, 36.81 40.48, 55.96 18.17 M-0.33 95.12 C22.2 68.33, 45.62 39.77, 73.81 9.83 M-0.33 95.12 C22.1 68.11, 45.88 42.73, 73.81 9.83 M1.12 105.65 C30.89 69.98, 65.33 35.93, 87.72 6.03 M1.12 105.65 C22.7 80.87, 43.14 57.65, 87.72 6.03 M2.56 116.18 C35.24 76.78, 67.2 41.05, 100.97 2.97 M2.56 116.18 C27.76 87.74, 54.07 57.72, 100.97 2.97 M4.01 126.71 C32.22 93.11, 59.22 60.15, 113.57 0.67 M4.01 126.71 C35.91 89.53, 68.62 51.4, 113.57 0.67 M7.42 134.98 C40.5 95.43, 75.07 59.32, 123.54 1.39 M7.42 134.98 C45.8 89.84, 85.04 44.24, 123.54 1.39 M11.49 142.49 C52.21 94.77, 96.67 42.05, 133.52 2.11 M11.49 142.49 C50.31 98.8, 89 55.85, 133.52 2.11 M16.22 149.25 C43.21 119.19, 68.52 93.21, 143.49 2.83 M16.22 149.25 C44.2 120.46, 69.51 90.46, 143.49 2.83 M20.29 156.76 C60.42 112.13, 98.92 66.2, 153.47 3.55 M20.29 156.76 C70.61 98.17, 123.5 38.69, 153.47 3.55 M25.01 163.52 C78.78 104.34, 129.84 43.87, 161.47 6.54 M25.01 163.52 C59.81 122.67, 96.54 80.97, 161.47 6.54 M31.05 168.77 C59.33 135.64, 86.62 104.56, 170.13 8.77 M31.05 168.77 C62.38 132.22, 94.14 95.8, 170.13 8.77 M37.09 174.01 C78.33 127.79, 121.43 76.57, 178.14 11.75 M37.09 174.01 C83.58 118.83, 131.41 64.07, 178.14 11.75 M43.12 179.26 C86.21 128.46, 131.95 78.22, 186.14 14.74 M43.12 179.26 C76.86 142.07, 109.66 103.61, 186.14 14.74 M49.16 184.51 C98.97 125.84, 147.72 70.12, 194.81 16.97 M49.16 184.51 C78.52 152.04, 107.67 118.21, 194.81 16.97 M55.86 189.01 C100.67 142.14, 141.31 89.89, 200.84 22.21 M55.86 189.01 C107.26 130.61, 159.4 70.01, 200.84 22.21 M63.86 191.99 C100.76 153, 137.48 110.42, 206.88 27.46 M63.86 191.99 C102.52 146.88, 141.18 102.37, 206.88 27.46 M72.52 194.22 C122.81 131.51, 175.17 72.05, 212.92 32.71 M72.52 194.22 C113.09 145.49, 156.38 97.51, 212.92 32.71 M80.53 197.2 C121.53 152.87, 159.37 106.22, 218.96 37.96 M80.53 197.2 C120.63 149.99, 161.86 102.75, 218.96 37.96 M88.53 200.19 C141.23 137.32, 192.79 78.47, 225 43.21 M88.53 200.19 C129.75 152.09, 171.72 103.84, 225 43.21 M97.85 201.66 C130.95 160.2, 165.76 121.9, 229.06 50.72 M97.85 201.66 C131.96 160.97, 167.91 122.87, 229.06 50.72 M107.83 202.38 C149.06 152.65, 190.35 104.63, 233.79 57.48 M107.83 202.38 C149.64 154.37, 189.69 108.95, 233.79 57.48 M117.8 203.1 C154.7 163.79, 189.37 120.39, 237.86 64.99 M117.8 203.1 C152.74 159.87, 191.02 118.87, 237.86 64.99 M127.77 203.82 C152.24 175.1, 176.06 146.42, 241.93 72.5 M127.77 203.82 C159.73 166.56, 191.89 130.69, 241.93 72.5 M137.75 204.54 C170.88 167.73, 202.01 130.68, 245.34 80.77 M137.75 204.54 C179.88 156.22, 221.39 107.91, 245.34 80.77 M151 201.49 C187.78 160.21, 228.54 114.16, 246.13 92.06 M151 201.49 C172.86 176.96, 193.73 153.43, 246.13 92.06 M164.26 198.44 C182.97 174.89, 202.16 150.95, 247.58 102.59 M164.26 198.44 C184.87 176.24, 202.37 154.61, 247.58 102.59 M178.82 193.87 C197.4 172.28, 214.68 150.29, 245.74 116.89 M178.82 193.87 C202.42 167.64, 225.4 141.03, 245.74 116.89 M200.61 181.01 C212.33 168.31, 227.05 152.34, 240.63 134.97 M200.61 181.01 C216.25 164.92, 229.61 146.89, 240.63 134.97" stroke="#eebefa" stroke-width="1" fill="none"></path><path d="M111.68 -0.19 C124.67 -2.88, 140.37 0.42, 154.11 3.27 C167.86 6.13, 182.4 10.28, 194.15 16.93 C205.89 23.59, 216.32 33.53, 224.59 43.2 C232.86 52.87, 239.99 63.96, 243.78 74.95 C247.58 85.93, 248.52 97.37, 247.34 109.11 C246.16 120.85, 242.51 134.58, 236.7 145.38 C230.88 156.18, 222.15 165.79, 212.45 173.9 C202.75 182.01, 191.08 189.03, 178.5 194.04 C165.93 199.05, 151.06 202.77, 136.98 203.98 C122.89 205.19, 107.77 203.92, 93.99 201.3 C80.22 198.69, 66.15 194.82, 54.35 188.29 C42.54 181.76, 31.45 171.86, 23.16 162.14 C14.87 152.42, 8.51 141.22, 4.6 129.97 C0.69 118.73, -1.43 106.39, -0.31 94.67 C0.82 82.95, 5.54 70.33, 11.36 59.64 C17.18 48.96, 24.84 38.82, 34.61 30.54 C44.38 22.25, 54.31 14.91, 69.97 9.93 C85.64 4.95, 116.4 1.75, 128.61 0.67 C140.82 -0.42, 143.31 1.67, 143.24 3.43 M91.62 4.06 C103.81 -0.44, 120.13 -1.4, 134.46 -0.59 C148.79 0.23, 164.66 3.91, 177.58 8.95 C190.5 13.99, 201.96 21.37, 211.99 29.64 C222.01 37.92, 231.68 47.91, 237.73 58.61 C243.77 69.3, 247.36 81.84, 248.25 93.81 C249.13 105.78, 246.64 119.1, 243.07 130.42 C239.49 141.73, 234.9 152.19, 226.78 161.72 C218.66 171.24, 206.04 181.14, 194.33 187.56 C182.63 193.98, 170.1 197.37, 156.57 200.24 C143.03 203.11, 127.26 205.56, 113.12 204.79 C98.97 204.03, 84.58 200.85, 71.68 195.65 C58.78 190.44, 45.71 181.84, 35.7 173.55 C25.69 165.27, 17.62 156.44, 11.6 145.92 C5.59 135.39, 0.84 122.07, -0.4 110.4 C-1.64 98.74, 0.4 87.15, 4.17 75.93 C7.94 64.71, 13.92 52.56, 22.21 43.09 C30.51 33.61, 42.39 25.57, 53.93 19.07 C65.47 12.58, 84.81 6.35, 91.43 4.11 C98.06 1.86, 92.82 4.26, 93.68 5.61" stroke="#1e1e1e" stroke-width="2" fill="none"></path></g><g transform="translate(1650.9160244838572 1916.2142125056057) rotate(0 18.353988647460938 17.5)"><text x="18.353988647460938" y="0" font-family="Virgil, Segoe UI Emoji" font-size="28px" fill="#1e1e1e" text-anchor="middle" style="white-space: pre;" direction="ltr" dominant-baseline="text-before-edge">div</text></g><g stroke-linecap="round" transform="translate(1596.7555724162708 2212.497557195921) rotate(0 141.72969142196098 102.5)"><path d="M21.85 48.14 C21.85 48.14, 21.85 48.14, 21.85 48.14 M21.85 48.14 C21.85 48.14, 21.85 48.14, 21.85 48.14 M2.95 82.07 C13.63 68.26, 26.65 56.93, 55.44 21.69 M2.95 82.07 C21.02 61.6, 40.27 38.54, 55.44 21.69 M2.43 94.87 C18.2 76.92, 36.75 57.01, 70.66 16.38 M2.43 94.87 C28.16 64.44, 54.44 34.01, 70.66 16.38 M1.91 107.66 C29.04 78.78, 54.73 50.05, 85.88 11.06 M1.91 107.66 C20.41 85.04, 39.48 62.61, 85.88 11.06 M2.04 119.7 C37.19 76.46, 74.7 36.46, 100.45 6.5 M2.04 119.7 C31.21 83.37, 62.59 47.34, 100.45 6.5 M6.11 127.21 C30.22 98.58, 53.42 70.94, 112.39 4.95 M6.11 127.21 C45.73 82.72, 83 39.4, 112.39 4.95 M9.53 135.48 C44.23 93.86, 78.89 54.29, 124.34 3.41 M9.53 135.48 C55.51 82.11, 100.51 29.67, 124.34 3.41 M13.59 142.99 C53.27 98.33, 91.27 54.55, 135.62 2.62 M13.59 142.99 C56.02 93.5, 97.24 44.5, 135.62 2.62 M17.66 150.51 C56.42 104.72, 94.34 60.05, 147.56 1.07 M17.66 150.51 C51.8 110.35, 84 72.17, 147.56 1.07 M23.05 156.51 C61.94 110.74, 97.25 67.31, 157.54 1.79 M23.05 156.51 C60.07 113.82, 98.13 69.56, 157.54 1.79 M29.08 161.76 C67.35 118.03, 106.17 70.76, 166.86 3.27 M29.08 161.76 C65.81 118.07, 104.47 73.86, 166.86 3.27 M35.12 167.01 C68.04 128.04, 104.2 90.69, 176.17 4.74 M35.12 167.01 C69.64 127.63, 102.39 90.95, 176.17 4.74 M40.5 173.01 C94.65 111.81, 146.21 52.28, 186.15 5.46 M40.5 173.01 C76.57 130.37, 115.51 87.47, 186.15 5.46 M46.54 178.26 C85.75 134.27, 127.42 86.23, 195.47 6.94 M46.54 178.26 C102.31 113.67, 157.27 49.56, 195.47 6.94 M53.89 182 C101.92 125.03, 153.83 66.96, 202.82 10.68 M53.89 182 C105.45 121.51, 157.69 60.94, 202.82 10.68 M61.9 184.98 C102.16 141.98, 140.24 98.23, 210.82 13.66 M61.9 184.98 C98.94 140.71, 138.18 95.91, 210.82 13.66 M69.25 188.72 C127.27 121.02, 185.44 53.97, 218.17 17.4 M69.25 188.72 C118.16 129.9, 168.17 72.03, 218.17 17.4 M77.25 191.71 C114.98 147.94, 152.73 104.56, 226.18 20.39 M77.25 191.71 C125.55 134.78, 175.1 77.71, 226.18 20.39 M84.6 195.44 C140.97 129.02, 197.34 67.63, 233.53 24.13 M84.6 195.44 C136.68 136.23, 188.15 76.79, 233.53 24.13 M93.26 197.67 C142 139.89, 190.14 85.42, 240.22 28.62 M93.26 197.67 C126.97 161.47, 159.31 123.31, 240.22 28.62 M101.93 199.9 C154.12 142.23, 206.97 81.7, 245.6 34.62 M101.93 199.9 C151.52 143.51, 201.16 85.51, 245.6 34.62 M111.24 201.38 C151.96 154.94, 192.11 109.49, 251.64 39.87 M111.24 201.38 C145.42 159.76, 180.37 119.96, 251.64 39.87 M120.56 202.85 C161.69 159.59, 198.31 111.84, 257.02 45.87 M120.56 202.85 C151.54 165.87, 184.74 128.13, 257.02 45.87 M129.22 205.08 C180.93 147.53, 229.77 88.59, 263.06 51.12 M129.22 205.08 C174.67 152.77, 219.55 99.26, 263.06 51.12 M139.2 205.8 C172.24 166.2, 207.26 129.33, 267.78 57.88 M139.2 205.8 C185.92 150.8, 234.46 96.29, 267.78 57.88 M151.14 204.26 C197.18 151.94, 243.58 98.46, 271.85 65.39 M151.14 204.26 C184.11 164.76, 217.29 126.79, 271.85 65.39 M163.08 202.72 C201.67 161.63, 237.3 118.33, 275.27 73.66 M163.08 202.72 C187.53 173.78, 212.79 145.19, 275.27 73.66 M175.68 200.42 C207.91 162.27, 243.84 124.02, 278.68 81.93 M175.68 200.42 C202.33 169.31, 230.6 137.56, 278.68 81.93 M187.62 198.87 C211.07 173.16, 236.4 143.46, 281.44 90.95 M187.62 198.87 C215.05 165.97, 243.73 132.05, 281.44 90.95 M202.84 193.56 C230.72 163.02, 255.73 133.2, 280.92 103.74 M202.84 193.56 C232.22 159.44, 261.84 127.52, 280.92 103.74 M218.07 188.24 C239.54 162.28, 259.6 140.36, 280.39 116.54 M218.07 188.24 C235.27 167.45, 254.57 145.87, 280.39 116.54 M236.57 179.15 C244.35 169.03, 254.03 161.37, 272 138.39 M236.57 179.15 C245.89 169, 254.42 156.79, 272 138.39" stroke="#eebefa" stroke-width="1" fill="none"></path><path d="M194.1 6.35 C209.4 8.79, 224.53 17, 236.57 25.07 C248.6 33.14, 258.79 44.4, 266.3 54.77 C273.81 65.14, 279.3 76, 281.63 87.28 C283.95 98.55, 283.4 111.01, 280.24 122.41 C277.07 133.82, 270.94 145.59, 262.64 155.72 C254.35 165.85, 243.33 175.98, 230.47 183.19 C217.61 190.39, 200.99 195.17, 185.47 198.96 C169.94 202.75, 153.18 206.23, 137.3 205.94 C121.43 205.66, 105.34 201.82, 90.23 197.25 C75.12 192.68, 58.73 186.23, 46.64 178.52 C34.54 170.82, 25.29 161.18, 17.66 151.03 C10.03 140.88, 3.29 129.2, 0.83 117.61 C-1.63 106.01, -0.61 93.08, 2.91 81.48 C6.43 69.88, 13.34 58.03, 21.97 48 C30.59 37.98, 42.19 28.3, 54.66 21.33 C67.13 14.36, 81.73 9.63, 96.79 6.18 C111.86 2.74, 127.58 -0.08, 145.07 0.66 C162.56 1.4, 191.25 8.22, 201.71 10.62 C212.18 13.03, 208.97 13.79, 207.88 15.07 M123.48 1.06 C138.37 -2.15, 158.29 -1.38, 174.1 1.31 C189.91 4, 204.98 10.52, 218.35 17.19 C231.72 23.86, 244.71 32.35, 254.32 41.33 C263.93 50.32, 270.96 60.26, 276.02 71.1 C281.09 81.94, 285.46 94.4, 284.72 106.36 C283.97 118.32, 277.93 131.73, 271.57 142.87 C265.22 154.01, 257.55 164.99, 246.59 173.21 C235.62 181.44, 220.27 187.11, 205.77 192.22 C191.26 197.32, 175.25 202.14, 159.56 203.83 C143.87 205.51, 127.21 204.98, 111.6 202.33 C95.99 199.67, 79.59 194.03, 65.88 187.92 C52.17 181.8, 39.15 174.69, 29.34 165.62 C19.54 156.55, 12.11 145.06, 7.05 133.49 C2 121.92, -1.59 108.12, -0.99 96.2 C-0.4 84.28, 4.13 72.68, 10.62 61.98 C17.12 51.29, 27.12 40.3, 37.99 32.05 C48.86 23.8, 61.45 17.71, 75.83 12.51 C90.22 7.3, 116.18 2.7, 124.27 0.84 C132.36 -1.02, 124.17 -0.33, 124.35 1.36" stroke="#1e1e1e" stroke-width="2" fill="none"></path></g><g transform="translate(1648.1352951892627 2280.0191121243) rotate(0 90.13194274902344 35)"><text x="90.13194274902344" y="0" font-family="Virgil, Segoe UI Emoji" font-size="28px" fill="#1e1e1e" text-anchor="middle" style="white-space: pre;" direction="ltr" dominant-baseline="text-before-edge">button</text><text x="90.13194274902344" y="35" font-family="Virgil, Segoe UI Emoji" font-size="28px" fill="#1e1e1e" text-anchor="middle" style="white-space: pre;" direction="ltr" dominant-baseline="text-before-edge">id="increment"</text></g><g stroke-linecap="round" transform="translate(1586.9472925724808 892.4029459247116) rotate(0 110 99.5)"><path d="M32.25 29.36 C32.25 29.36, 32.25 29.36, 32.25 29.36 M32.25 29.36 C32.25 29.36, 32.25 29.36, 32.25 29.36 M8.11 69.32 C21.2 56.04, 34.45 39.73, 56 14.23 M8.11 69.32 C26.5 47.5, 43.85 27.07, 56 14.23 M2.99 87.4 C29.05 58.19, 51.55 32.03, 72.53 7.4 M2.99 87.4 C19.32 66.27, 36.96 47.67, 72.53 7.4 M1.16 101.71 C29.97 64.13, 62.08 30.58, 85.79 4.35 M1.16 101.71 C22.04 79.02, 40.36 56.44, 85.79 4.35 M2.6 112.24 C22.85 87.28, 46.22 60.76, 98.39 2.05 M2.6 112.24 C34.51 74.63, 67.64 37.79, 98.39 2.05 M4.05 122.77 C27.32 96.03, 48.26 73.02, 109.67 1.26 M4.05 122.77 C41.98 78.45, 79.87 34.85, 109.67 1.26 M6.81 131.79 C38.19 97.48, 70.89 60.74, 119.65 1.98 M6.81 131.79 C31.04 105.31, 55.55 77.75, 119.65 1.98 M10.87 139.3 C39.61 109.45, 65.09 78.86, 128.97 3.46 M10.87 139.3 C58.06 85.93, 105.27 32.3, 128.97 3.46 M15.6 146.06 C62.45 88.9, 113.22 34.33, 138.94 4.18 M15.6 146.06 C58.53 95.9, 103.1 45.41, 138.94 4.18 M19.67 153.57 C57.94 109.56, 97.77 65.38, 147.6 6.41 M19.67 153.57 C61.36 106.3, 102.66 58.44, 147.6 6.41 M24.4 160.33 C65.11 117.67, 104.11 71.34, 154.95 10.15 M24.4 160.33 C60.29 119.89, 95.12 80.64, 154.95 10.15 M29.78 166.34 C78.82 109.63, 125.93 54.55, 162.3 13.88 M29.78 166.34 C78.54 111.14, 127.01 55.62, 162.3 13.88 M36.47 170.83 C68.16 137.15, 99.41 100.55, 170.31 16.87 M36.47 170.83 C80.41 120.58, 124.45 70.09, 170.31 16.87 M42.51 176.08 C92.99 118.07, 144.84 59.91, 177.66 20.61 M42.51 176.08 C81.33 130.64, 118.94 86.91, 177.66 20.61 M49.2 180.57 C89.24 135.83, 128.8 89.98, 183.69 25.86 M49.2 180.57 C88.79 133.11, 129.88 87.5, 183.69 25.86 M55.24 185.82 C97.31 137.82, 140.94 89.86, 189.08 31.86 M55.24 185.82 C91.84 142.54, 127.54 101.97, 189.08 31.86 M63.25 188.8 C104.45 142.3, 142.52 95.78, 194.46 37.86 M63.25 188.8 C94.26 152.86, 125.06 116.1, 194.46 37.86 M71.91 191.03 C102.03 157.16, 133.53 120.37, 199.18 44.62 M71.91 191.03 C107.29 151.3, 143.03 111.01, 199.18 44.62 M79.91 194.02 C121.41 147.92, 160.47 100.78, 204.56 50.62 M79.91 194.02 C128.33 135.85, 178.42 78.41, 204.56 50.62 M88.58 196.25 C133.09 140.95, 179.72 89.59, 208.63 58.14 M88.58 196.25 C122.31 159.75, 154.61 123.43, 208.63 58.14 M97.24 198.48 C138.99 151.8, 177.13 107.13, 212.05 66.4 M97.24 198.48 C132.19 158.08, 166.6 117.57, 212.05 66.4 M107.87 198.44 C136.44 164.52, 169.46 131.8, 215.46 74.67 M107.87 198.44 C146.7 152.02, 188.13 106.75, 215.46 74.67 M119.15 197.65 C139.79 172.24, 159.75 148.64, 218.87 82.94 M119.15 197.65 C147.15 163.94, 176.22 131.56, 218.87 82.94 M129.78 197.62 C150.85 173.76, 170.76 151.49, 219.01 94.98 M129.78 197.62 C160.26 164.12, 188.64 129.01, 219.01 94.98 M143.69 193.81 C164.6 169.41, 188.03 142.73, 217.83 108.53 M143.69 193.81 C169.17 163.85, 196.58 133.17, 217.83 108.53 M160.88 186.23 C174.09 170.85, 189.81 152.94, 217.31 121.33 M160.88 186.23 C175.13 169.75, 189.97 153.56, 217.31 121.33 M186.6 168.84 C194.04 162.47, 202.74 151.05, 206.29 146.2 M186.6 168.84 C192.9 160.72, 199.94 154.17, 206.29 146.2" stroke="#e9ecef" stroke-width="1" fill="none"></path><path d="M65.85 8.14 C76.84 2.01, 92.49 0.92, 105.63 0.27 C118.76 -0.38, 132.12 0.54, 144.66 4.25 C157.19 7.97, 170.7 14.65, 180.84 22.55 C190.98 30.46, 199.1 41.31, 205.5 51.66 C211.9 62.02, 217.38 73.11, 219.21 84.69 C221.05 96.28, 219.5 109.29, 216.53 121.17 C213.56 133.04, 208.93 145.95, 201.41 155.95 C193.89 165.95, 182.55 174.3, 171.42 181.17 C160.3 188.03, 147.32 194.31, 134.66 197.13 C122 199.94, 108.41 199.8, 95.44 198.06 C82.47 196.32, 68.39 192.44, 56.85 186.67 C45.32 180.9, 34.76 172.77, 26.23 163.45 C17.71 154.13, 10.11 142.06, 5.69 130.76 C1.28 119.46, -1 107.51, -0.24 95.66 C0.53 83.8, 4.82 70.71, 10.26 59.63 C15.69 48.56, 22.44 38.13, 32.37 29.21 C42.3 20.3, 62.93 9.87, 69.83 6.16 C76.73 2.45, 73.13 5.36, 73.77 6.94" stroke="#868e96" stroke-width="2.5" fill="none" stroke-dasharray="8 10"></path></g><g transform="translate(1639.133564220086 969.5458211966502) rotate(0 58.031982421875 22.5)"><text x="58.031982421875" y="0" font-family="Virgil, Segoe UI Emoji" font-size="36px" fill="#868e96" text-anchor="middle" style="white-space: pre;" direction="ltr" dominant-baseline="text-before-edge">Footer</text></g><g stroke-linecap="round"><g transform="translate(1143.0045248033553 792.0535366692548) rotate(0 -83.65055123610932 67.47444031903065)"><path d="M-1 -0.73 C-29.22 21.81, -140.73 113.15, -168.37 135.57" stroke="#868e96" stroke-width="4.5" fill="none" stroke-dasharray="8 12"></path></g><g transform="translate(1143.0045248033553 792.0535366692548) rotate(0 -83.65055123610932 67.47444031903065)"><path d="M-155.57 114.1 C-161.55 120.33, -164.14 131.03, -168.37 135.57" stroke="#868e96" stroke-width="4.5" fill="none"></path></g><g transform="translate(1143.0045248033553 792.0535366692548) rotate(0 -83.65055123610932 67.47444031903065)"><path d="M-144.76 127.35 C-154.87 128.48, -161.55 134.18, -168.37 135.57" stroke="#868e96" stroke-width="4.5" fill="none"></path></g></g><mask></mask><g stroke-linecap="round"><g transform="translate(1273.438226853034 839.3949861614519) rotate(0 -0.5980315591373255 109.85458775916817)"><path d="M-1.07 0.62 C-1.02 37.17, -0.63 182.21, -0.71 218.57 M0.57 -0.1 C0.59 36.62, -0.89 182.89, -1.4 219.51" stroke="#1e1e1e" stroke-width="4" fill="none"></path></g><g transform="translate(1273.438226853034 839.3949861614519) rotate(0 -0.5980315591373255 109.85458775916817)"><path d="M-9.68 195.92 C-7 201.91, -8.14 205.62, -1.4 219.51 M-9.68 195.92 C-7.66 201.31, -5.66 207.12, -1.4 219.51" stroke="#1e1e1e" stroke-width="4" fill="none"></path></g><g transform="translate(1273.438226853034 839.3949861614519) rotate(0 -0.5980315591373255 109.85458775916817)"><path d="M7.42 196.12 C6.4 201.91, 1.56 205.58, -1.4 219.51 M7.42 196.12 C5.63 201.53, 3.81 207.29, -1.4 219.51" stroke="#1e1e1e" stroke-width="4" fill="none"></path></g></g><mask></mask><g stroke-linecap="round"><g transform="translate(1391.6461386844053 771.2238056732219) rotate(0 108.63367343994469 75.72171980033455)"><path d="M0.49 -1.14 C36.82 23.84, 180.62 125.01, 216.92 150.52" stroke="#868e96" stroke-width="4.5" fill="none" stroke-dasharray="8 12"></path></g><g transform="translate(1391.6461386844053 771.2238056732219) rotate(0 108.63367343994469 75.72171980033455)"><path d="M192.78 144.01 C196.01 144.7, 201.46 148.3, 216.92 150.52" stroke="#868e96" stroke-width="4.5" fill="none"></path></g><g transform="translate(1391.6461386844053 771.2238056732219) rotate(0 108.63367343994469 75.72171980033455)"><path d="M202.61 130.02 C203.84 133.7, 207.22 140.25, 216.92 150.52" stroke="#868e96" stroke-width="4.5" fill="none"></path></g></g><mask></mask><g transform="translate(10 10) rotate(0 391.4193420410156 60.305589779357945)"><text x="0" y="0" font-family="Virgil, Segoe UI Emoji" font-size="96.48894364697276px" fill="#1e1e1e" text-anchor="start" style="white-space: pre;" direction="ltr" dominant-baseline="text-before-edge">Counter Example</text></g><g stroke-linecap="round"><g transform="translate(1261.116964743855 450.1537143461735) rotate(0 0 74.26097992373877)"><path d="M-0.98 0.43 C-1.14 25.21, -1.35 124.85, -1.19 149.49 M0.7 -0.4 C0.91 23.99, 1.14 122.91, 0.9 147.87" stroke="#1e1e1e" stroke-width="2" fill="none"></path></g><g transform="translate(1261.116964743855 450.1537143461735) rotate(0 0 74.26097992373877)"><path d="M-7.59 124.35 C-4.34 129.04, -1.06 137.63, 0.9 147.87 M-7.59 124.35 C-4.45 130.17, -3.62 136.7, 0.9 147.87" stroke="#1e1e1e" stroke-width="2" fill="none"></path></g><g transform="translate(1261.116964743855 450.1537143461735) rotate(0 0 74.26097992373877)"><path d="M9.51 124.4 C7.96 128.93, 6.45 137.52, 0.9 147.87 M9.51 124.4 C7.95 130.22, 4.08 136.75, 0.9 147.87" stroke="#1e1e1e" stroke-width="2" fill="none"></path></g></g><mask></mask><g stroke-linecap="round"><g transform="translate(1274.010220992121 1290.493691477835) rotate(0 1.6963932048804509 71.80857891314184)"><path d="M0.65 1.18 C1.37 25.38, 3.8 120.84, 4.21 144.77 M-0.47 0.75 C0.17 24.69, 3.25 119.54, 3.69 143.25" stroke="#1e1e1e" stroke-width="4" fill="none"></path></g><g transform="translate(1274.010220992121 1290.493691477835) rotate(0 1.6963932048804509 71.80857891314184)"><path d="M-5.48 119.99 C-0.92 128.11, 1.72 133.08, 3.69 143.25 M-5.48 119.99 C-2.13 129.44, 2.82 138.54, 3.69 143.25" stroke="#1e1e1e" stroke-width="4" fill="none"></path></g><g transform="translate(1274.010220992121 1290.493691477835) rotate(0 1.6963932048804509 71.80857891314184)"><path d="M11.62 119.53 C11.17 127.88, 8.8 132.99, 3.69 143.25 M11.62 119.53 C8.25 129.2, 6.48 138.48, 3.69 143.25" stroke="#1e1e1e" stroke-width="4" fill="none"></path></g></g><mask></mask><g stroke-linecap="round"><g transform="translate(1201.2005369192416 1635.2543506117927) rotate(0 -89.96930149583113 119.10593893242833)"><path d="M0.35 -0.38 C-29.55 39.25, -149.79 197.69, -179.85 237.6 M-0.93 -1.63 C-30.94 38.18, -150.78 199.01, -180.75 238.82" stroke="#1e1e1e" stroke-width="4" fill="none"></path></g><g transform="translate(1201.2005369192416 1635.2543506117927) rotate(0 -89.96930149583113 119.10593893242833)"><path d="M-173.52 214.89 C-176.11 221.37, -178.39 227.45, -180.75 238.82 M-173.52 214.89 C-175.91 224.65, -178.94 233.33, -180.75 238.82" stroke="#1e1e1e" stroke-width="4" fill="none"></path></g><g transform="translate(1201.2005369192416 1635.2543506117927) rotate(0 -89.96930149583113 119.10593893242833)"><path d="M-159.83 225.13 C-166.01 228.95, -171.91 232.34, -180.75 238.82 M-159.83 225.13 C-167.33 231.08, -175.49 235.92, -180.75 238.82" stroke="#1e1e1e" stroke-width="4" fill="none"></path></g></g><mask></mask><g stroke-linecap="round"><g transform="translate(1372.27369101448 1620.99293131289) rotate(0 101.8622214498564 112.40932322160722)"><path d="M0.56 -0.69 C34.23 36.38, 168.93 185.92, 202.89 223.62 M-0.61 1.55 C33.36 39.23, 171.08 187.53, 205.16 224.53" stroke="#1e1e1e" stroke-width="4" fill="none"></path></g><g transform="translate(1372.27369101448 1620.99293131289) rotate(0 101.8622214498564 112.40932322160722)"><path d="M182.93 213.09 C190.18 215.85, 197.63 222.5, 205.16 224.53 M182.93 213.09 C190 217.06, 198.06 221.33, 205.16 224.53" stroke="#1e1e1e" stroke-width="4" fill="none"></path></g><g transform="translate(1372.27369101448 1620.99293131289) rotate(0 101.8622214498564 112.40932322160722)"><path d="M195.48 201.47 C198.16 208.63, 200.93 219.61, 205.16 224.53 M195.48 201.47 C197.97 209.7, 201.55 218.12, 205.16 224.53" stroke="#1e1e1e" stroke-width="4" fill="none"></path></g></g><mask></mask><g stroke-linecap="round"><g transform="translate(1585.1184476719532 2020.4242132321888) rotate(0 -61.66547522994097 96.00558406088965)"><path d="M0.4 -1.01 C-20.04 31.15, -101.69 159.67, -122.33 191.81 M-0.85 1.07 C-21.38 33.51, -102.18 161.25, -122.76 193.25" stroke="#1e1e1e" stroke-width="4" fill="none"></path></g><g transform="translate(1585.1184476719532 2020.4242132321888) rotate(0 -61.66547522994097 96.00558406088965)"><path d="M-117.35 168.84 C-121.01 178.39, -121.4 184.35, -122.76 193.25 M-117.35 168.84 C-119.37 174.91, -119.27 182.31, -122.76 193.25" stroke="#1e1e1e" stroke-width="4" fill="none"></path></g><g transform="translate(1585.1184476719532 2020.4242132321888) rotate(0 -61.66547522994097 96.00558406088965)"><path d="M-102.93 178.03 C-111.15 184.66, -116.2 187.65, -122.76 193.25 M-102.93 178.03 C-109.16 181.52, -113.19 186.3, -122.76 193.25" stroke="#1e1e1e" stroke-width="4" fill="none"></path></g></g><mask></mask><g stroke-linecap="round"><g transform="translate(1707.7156559263417 2037.3839313853628) rotate(0 4.201315476722357 78.6729347506598)"><path d="M-1.16 -1.01 C0.18 25.43, 6.21 131.95, 7.73 158.35 M0.43 1.07 C2.2 27.22, 9 130.47, 10.1 156.75" stroke="#1e1e1e" stroke-width="4" fill="none"></path></g><g transform="translate(1707.7156559263417 2037.3839313853628) rotate(0 4.201315476722357 78.6729347506598)"><path d="M0.26 133.77 C1.2 139.04, 7.25 145.77, 10.1 156.75 M0.26 133.77 C2.92 141.45, 6.2 147.02, 10.1 156.75" stroke="#1e1e1e" stroke-width="4" fill="none"></path></g><g transform="translate(1707.7156559263417 2037.3839313853628) rotate(0 4.201315476722357 78.6729347506598)"><path d="M17.33 132.82 C13.6 138.18, 14.97 145.18, 10.1 156.75 M17.33 132.82 C14.83 140.94, 12.94 146.8, 10.1 156.75" stroke="#1e1e1e" stroke-width="4" fill="none"></path></g></g><mask></mask><g stroke-linecap="round"><g transform="translate(1766.0784873352409 2006.023192808805) rotate(0 118.65524043008872 104.79066055814314)"><path d="M-0.58 -0.42 C39.16 34.31, 197.93 174.06, 237.41 209.04 M1.31 -1.69 C40.99 33.15, 196.96 174.89, 236.52 210.3" stroke="#1e1e1e" stroke-width="4" fill="none"></path></g><g transform="translate(1766.0784873352409 2006.023192808805) rotate(0 118.65524043008872 104.79066055814314)"><path d="M213.35 200.91 C217.65 203.2, 222.43 203.37, 236.52 210.3 M213.35 200.91 C219.69 203.71, 226.87 207.17, 236.52 210.3" stroke="#1e1e1e" stroke-width="4" fill="none"></path></g><g transform="translate(1766.0784873352409 2006.023192808805) rotate(0 118.65524043008872 104.79066055814314)"><path d="M224.8 188.21 C226.72 193.17, 229.04 196.06, 236.52 210.3 M224.8 188.21 C227.74 194.62, 231.58 201.79, 236.52 210.3" stroke="#1e1e1e" stroke-width="4" fill="none"></path></g></g><mask></mask><g stroke-linecap="round"><g transform="translate(909.21209395287 2076.422013385008) rotate(0 -7.5569307227092395 37.784653613545856)"><path d="M-0.61 -0.01 C-3.07 12.69, -12.09 63.76, -14.4 76.28 M1.27 -1.07 C-1.32 11.29, -12.28 61.66, -14.97 74.53" stroke="#1e1e1e" stroke-width="4" fill="none"></path></g><g transform="translate(909.21209395287 2076.422013385008) rotate(0 -7.5569307227092395 37.784653613545856)"><path d="M-18.42 49.77 C-17.3 59.15, -14.96 67.26, -14.97 74.53 M-18.42 49.77 C-17.75 57.01, -15.58 62.93, -14.97 74.53" stroke="#1e1e1e" stroke-width="4" fill="none"></path></g><g transform="translate(909.21209395287 2076.422013385008) rotate(0 -7.5569307227092395 37.784653613545856)"><path d="M-1.7 53.34 C-6.1 61.46, -9.27 68.39, -14.97 74.53 M-1.7 53.34 C-5.4 59.7, -7.58 64.69, -14.97 74.53" stroke="#1e1e1e" stroke-width="4" fill="none"></path></g></g><mask></mask><g stroke-linecap="round" transform="translate(31.86804062097326 464.76946534033476) rotate(0 239.9325504460162 276.7725877192236)"><path d="M32 0 C192.6 -0.35, 354.78 -1.55, 447.87 0 M32 0 C135.57 -1.42, 239.36 -1.63, 447.87 0 M447.87 0 C469.12 -0.12, 480.16 9.53, 479.87 32 M447.87 0 C471.32 -0.43, 480.83 10.9, 479.87 32 M479.87 32 C481.99 148.9, 481.61 265.15, 479.87 521.55 M479.87 32 C481.23 163.14, 481.1 293.58, 479.87 521.55 M479.87 521.55 C478.05 541.38, 467.5 554.02, 447.87 553.55 M479.87 521.55 C478.34 542.07, 468.28 552.05, 447.87 553.55 M447.87 553.55 C325.32 551.77, 204.13 552.85, 32 553.55 M447.87 553.55 C303.89 552.39, 160.94 552.75, 32 553.55 M32 553.55 C9.46 552.09, 1.89 541.66, 0 521.55 M32 553.55 C12.14 553.25, 1.7 543.94, 0 521.55 M0 521.55 C0.32 378.64, 0.81 233.55, 0 32 M0 521.55 C-1.64 326.13, -1.64 129.84, 0 32 M0 32 C1.45 11.53, 9.68 -1.02, 32 0 M0 32 C-2.09 9.75, 9.54 0.96, 32 0" stroke="#1e1e1e" stroke-width="4" fill="none"></path></g><g transform="translate(101.76964980603361 503.22181699591164) rotate(0 157.3560791015625 47.060024848804716)"><text x="0" y="0" font-family="Virgil, Segoe UI Emoji" font-size="75.29603975808756px" fill="#1e1e1e" text-anchor="start" style="white-space: pre;" direction="ltr" dominant-baseline="text-before-edge">Count: 4</text></g><g stroke-linecap="round" transform="translate(63.20343670503689 615.2403817524853) rotate(0 82.55496202469067 76.08609945036781)"><path d="M7.86 8.16 C7.86 8.16, 7.86 8.16, 7.86 8.16 M7.86 8.16 C7.86 8.16, 7.86 8.16, 7.86 8.16 M8.78 31.49 C15.61 23.52, 18.83 19.09, 34.37 2.05 M8.78 31.49 C14.61 26.03, 19.66 19.14, 34.37 2.05 M8.39 56.32 C18.35 42.19, 32.7 28.25, 55.63 1.98 M8.39 56.32 C23.78 39.92, 37.82 22.99, 55.63 1.98 M8.66 80.4 C34.04 50.34, 56.51 24.15, 76.89 1.91 M8.66 80.4 C27.79 58.5, 48.34 34.01, 76.89 1.91 M8.27 105.24 C38.54 69.55, 70.85 32.25, 98.15 1.85 M8.27 105.24 C36.21 74.78, 62.62 43.76, 98.15 1.85 M3.29 135.36 C42.42 89.34, 82.37 42.73, 119.41 1.78 M3.29 135.36 C35.93 98.19, 68.54 60.25, 119.41 1.78 M12.74 148.88 C58.03 96.59, 103.83 47.36, 138.05 4.73 M12.74 148.88 C55.06 97.74, 100.3 47.62, 138.05 4.73 M26.13 157.86 C60.67 122.43, 91.86 81.96, 155.37 9.19 M26.13 157.86 C58.69 120.97, 89.37 83.29, 155.37 9.19 M43.45 162.32 C77.87 126.39, 108.88 89.13, 166.13 21.19 M43.45 162.32 C78.77 121.49, 114.71 79.37, 166.13 21.19 M64.71 162.25 C102.3 112.82, 145.11 66.21, 172.3 38.48 M64.71 162.25 C90.52 132.27, 115.84 103.99, 172.3 38.48 M85.97 162.18 C110.23 135.69, 132.69 113.22, 172.57 62.56 M85.97 162.18 C102.52 141.16, 119.25 120.74, 172.57 62.56 M107.23 162.12 C129.65 132.98, 157.06 107.28, 172.18 87.4 M107.23 162.12 C130.94 134.93, 155.32 106.58, 172.18 87.4 M135.05 154.5 C141.84 146.86, 148.78 137.97, 171.79 112.24 M135.05 154.5 C146.93 140.98, 157.75 128.63, 171.79 112.24 M8.28 144.42 C8.28 144.42, 8.28 144.42, 8.28 144.42 M8.28 144.42 C8.28 144.42, 8.28 144.42, 8.28 144.42 M41.42 152.03 C30.72 141.35, 20.1 132.19, -0.09 115.94 M41.42 152.03 C31.86 143.09, 22.86 134.79, -0.09 115.94 M65.5 151.76 C41.03 130.92, 15.82 109.49, -0.16 94.68 M65.5 151.76 C47.94 137.61, 31.08 122.89, -0.16 94.68 M90.34 152.15 C72 134.77, 52.04 119.7, 0.53 74.08 M90.34 152.15 C66.65 131.43, 42.89 110.51, 0.53 74.08 M114.42 151.88 C76.02 119.7, 38.54 89.24, 0.46 52.82 M114.42 151.88 C88.03 128.12, 62.61 106.52, 0.46 52.82 M137.75 150.96 C94.5 113.25, 49.78 77.99, 0.39 31.56 M137.75 150.96 C95.59 113.12, 53.6 77.34, 0.39 31.56 M155.04 144.79 C95.81 94.76, 37.68 39.85, 4.85 14.23 M155.04 144.79 C103.06 98.18, 51.36 51.8, 4.85 14.23 M164.03 131.4 C107.72 82.01, 52.5 35.4, 16.1 2.81 M164.03 131.4 C118.86 90.63, 71.62 49.62, 16.1 2.81 M165.47 111.45 C122.14 74.01, 77.09 35.72, 37.17 -0.08 M165.47 111.45 C127.6 75.57, 87.48 42.62, 37.17 -0.08 M165.4 90.19 C124.65 56.17, 87.88 22.7, 61.25 -0.34 M165.4 90.19 C140.34 68.48, 115.2 47.41, 61.25 -0.34 M165.33 68.93 C134.05 42.85, 103.47 13.09, 85.33 -0.61 M165.33 68.93 C141.26 46.75, 116.68 25.75, 85.33 -0.61 M165.26 47.67 C143.58 29.96, 124.72 13.5, 110.17 -0.22 M165.26 47.67 C147.15 31.38, 127.13 13.83, 110.17 -0.22 M164.44 25.76 C157.4 16.51, 146.55 9.62, 135 0.17 M164.44 25.76 C153.43 15.98, 141.17 4.87, 135 0.17" stroke="#a5d8ff" stroke-width="2" fill="none"></path><path d="M32 0 C72.72 0.3, 109.92 -0.38, 133.11 0 M32 0 C59.29 1.1, 88.46 0.7, 133.11 0 M133.11 0 C156.39 0.78, 166.61 10.01, 165.11 32 M133.11 0 C154.45 1.93, 165.21 11.14, 165.11 32 M165.11 32 C165.17 52.15, 164.55 70.49, 165.11 120.17 M165.11 32 C165.25 57.87, 163.76 82.36, 165.11 120.17 M165.11 120.17 C165.08 143.11, 156.11 151.4, 133.11 152.17 M165.11 120.17 C164.05 142.63, 154.51 152.83, 133.11 152.17 M133.11 152.17 C108.17 151.69, 81.22 150.61, 32 152.17 M133.11 152.17 C97.66 152.17, 61.56 152.36, 32 152.17 M32 152.17 C8.74 153.74, -0.21 140.04, 0 120.17 M32 152.17 C8.56 152.85, 1.37 139.93, 0 120.17 M0 120.17 C0.72 98.75, -0.2 80.47, 0 32 M0 120.17 C0.12 90.88, 0.57 63.41, 0 32 M0 32 C-1.58 10.94, 10.03 1.14, 32 0 M0 32 C0.41 9.94, 8.94 1.29, 32 0" stroke="#1e1e1e" stroke-width="4" fill="none"></path></g><g transform="translate(110.21777220384865 620.2403817524853) rotate(0 35.540626525878906 71.08609945036781)"><text x="35.540626525878906" y="0" font-family="Virgil, Segoe UI Emoji" font-size="113.7377591205885px" fill="#1e1e1e" text-anchor="middle" style="white-space: pre;" direction="ltr" dominant-baseline="text-before-edge">+</text></g><g stroke-linecap="round" transform="translate(293.68982374766756 619.0188471138399) rotate(0 88.22266006672294 76.08609945036781)"><path d="M7.86 8.16 C7.86 8.16, 7.86 8.16, 7.86 8.16 M7.86 8.16 C7.86 8.16, 7.86 8.16, 7.86 8.16 M8.78 31.49 C18.81 20.88, 26.61 10.61, 34.37 2.05 M8.78 31.49 C16.37 23.19, 22.53 14.02, 34.37 2.05 M8.39 56.32 C22.56 35.22, 42.76 16.09, 55.63 1.98 M8.39 56.32 C19.59 43.62, 30.99 30.68, 55.63 1.98 M8.66 80.4 C28.24 60.46, 44.14 40.35, 76.89 1.91 M8.66 80.4 C32.71 50.74, 57.56 24.12, 76.89 1.91 M8.27 105.24 C29.69 79.58, 53.54 55.89, 98.15 1.85 M8.27 105.24 C41.53 67.99, 73.41 31.35, 98.15 1.85 M3.29 135.36 C41.28 93.18, 82.34 47.47, 119.41 1.78 M3.29 135.36 C42.21 91.6, 81.75 47.55, 119.41 1.78 M12.74 148.88 C58.61 92.78, 107.93 41.75, 140.67 1.71 M12.74 148.88 C62.59 89.39, 113.19 30.12, 140.67 1.71 M26.13 157.86 C74.99 99.24, 128.08 42.89, 159.96 3.9 M26.13 157.86 C68.41 108.69, 109.41 60.48, 159.96 3.9 M43.45 162.32 C78.06 123.03, 112.84 82.1, 173.35 12.89 M43.45 162.32 C74.85 124.8, 107.16 87.66, 173.35 12.89 M64.71 162.25 C92.24 128.44, 121.36 94.07, 177.55 32.44 M64.71 162.25 C86.74 137.91, 110.81 111.1, 177.55 32.44 M85.97 162.18 C116.1 130.2, 147.04 93.26, 177.16 57.28 M85.97 162.18 C122.86 120.33, 157.74 80.49, 177.16 57.28 M107.23 162.12 C122.73 142.04, 142.35 125.8, 176.77 82.12 M107.23 162.12 C127.03 138.49, 147.05 116.49, 176.77 82.12 M128.49 162.05 C140.51 146.89, 153.35 137.34, 177.04 106.2 M128.49 162.05 C147.09 140.42, 165.22 118.55, 177.04 106.2 M159.59 150.66 C166.05 145.56, 168.45 141.22, 177.96 129.53 M159.59 150.66 C164.17 146.52, 167.77 141.65, 177.96 129.53 M8.28 144.42 C8.28 144.42, 8.28 144.42, 8.28 144.42 M8.28 144.42 C8.28 144.42, 8.28 144.42, 8.28 144.42 M36.14 147.43 C24.31 134.45, 11.66 125.99, 2.18 117.91 M36.14 147.43 C22.9 136.74, 11.88 127.23, 2.18 117.91 M60.22 147.17 C44.66 135.29, 34.4 123.49, 2.11 96.65 M60.22 147.17 C41.04 130.63, 21.59 112.95, 2.11 96.65 M85.06 147.56 C62.03 127.69, 41.86 112.51, 2.04 75.39 M85.06 147.56 C59.2 126.59, 35.5 104.43, 2.04 75.39 M109.14 147.29 C80.92 122.92, 53.46 97.3, 2.73 54.79 M109.14 147.29 C69.74 114.15, 30.99 81.53, 2.73 54.79 M133.98 147.68 C88.9 106.67, 40.76 68.58, 2.66 33.53 M133.98 147.68 C96.09 115.66, 58.54 83.76, 2.66 33.53 M159.57 148.73 C126.93 120.67, 96.1 93, 4.85 14.23 M159.57 148.73 C99.49 95.85, 38.25 43.9, 4.85 14.23 M173.08 139.28 C132.56 105.27, 93.11 68.85, 13.84 0.85 M173.08 139.28 C116.09 88.45, 58.19 38.88, 13.84 0.85 M179.81 123.92 C141.21 92.1, 100.72 59.63, 34.15 -2.7 M179.81 123.92 C129.45 80.43, 78.19 36.86, 34.15 -2.7 M179.74 102.66 C133.75 63.39, 87.51 24.89, 58.98 -2.31 M179.74 102.66 C137.58 65.37, 96.09 28.88, 58.98 -2.31 M179.67 81.4 C150.66 57.36, 124.99 31.94, 83.07 -2.58 M179.67 81.4 C148.21 55.86, 117.58 27.91, 83.07 -2.58 M179.6 60.14 C161.64 46.07, 146.14 30.75, 107.15 -2.84 M179.6 60.14 C152.2 37.27, 126.01 14.59, 107.15 -2.84 M179.53 38.88 C165.86 28.98, 157.33 18.14, 131.98 -2.45 M179.53 38.88 C169.47 29.55, 158.9 20.79, 131.98 -2.45 M176.44 14.99 C169.66 11.79, 166.54 6.7, 159.84 0.56 M176.44 14.99 C171.28 11.1, 166.1 5.89, 159.84 0.56" stroke="#ffd8a8" stroke-width="2" fill="none"></path><path d="M32 0 C60.3 1.36, 89.25 -1.24, 144.45 0 M32 0 C59.63 0.38, 85.69 0.99, 144.45 0 M144.45 0 C165.02 0.02, 178.03 10.79, 176.45 32 M144.45 0 C167.05 1.2, 177.58 11.06, 176.45 32 M176.45 32 C175.88 59.4, 177.15 84.06, 176.45 120.17 M176.45 32 C177.95 65.98, 176.66 99.08, 176.45 120.17 M176.45 120.17 C176.6 141.26, 163.93 152.7, 144.45 152.17 M176.45 120.17 C178.21 142.51, 166.4 150.62, 144.45 152.17 M144.45 152.17 C111.95 150.78, 83.28 150.62, 32 152.17 M144.45 152.17 C104.96 152.28, 65.47 153.66, 32 152.17 M32 152.17 C8.91 150.54, 1.34 141.31, 0 120.17 M32 152.17 C10.83 153.61, 0.97 140.27, 0 120.17 M0 120.17 C0.5 92.76, 1.5 60.16, 0 32 M0 120.17 C0.15 90.38, 1.05 60.18, 0 32 M0 32 C-0.56 11.44, 12.39 0.86, 32 0 M0 32 C0.47 10.37, 11.39 0.11, 32 0" stroke="#1e1e1e" stroke-width="4" fill="none"></path></g><g transform="translate(358.54097044769105 624.0188471138399) rotate(0 23.37151336669922 71.08609945036781)"><text x="23.37151336669922" y="0" font-family="Virgil, Segoe UI Emoji" font-size="113.7377591205885px" fill="#1e1e1e" text-anchor="middle" style="white-space: pre;" direction="ltr" dominant-baseline="text-before-edge">-</text></g><g stroke-linecap="round" transform="translate(63.20343670503689 807.828253736151) rotate(0 203.46585358803804 76.08609945036781)"><path d="M7.86 8.16 C7.86 8.16, 7.86 8.16, 7.86 8.16 M7.86 8.16 C7.86 8.16, 7.86 8.16, 7.86 8.16 M8.78 31.49 C17.15 21.04, 26.67 12.27, 34.37 2.05 M8.78 31.49 C18.44 19.66, 27.6 8.99, 34.37 2.05 M8.39 56.32 C24.5 41.31, 38.7 23.31, 55.63 1.98 M8.39 56.32 C24.65 38.8, 40.04 19.64, 55.63 1.98 M8.66 80.4 C25.31 59.66, 44.26 41.06, 76.89 1.91 M8.66 80.4 C28.27 59.39, 47.15 37.79, 76.89 1.91 M8.93 104.49 C42.92 67.25, 72.98 32.03, 98.15 1.85 M8.93 104.49 C42.2 66.73, 75.63 29.26, 98.15 1.85 M5.91 132.34 C36.25 98.57, 67.22 62.06, 119.41 1.78 M5.91 132.34 C28.41 107.19, 50.72 79.18, 119.41 1.78 M13.4 148.12 C43.35 110.96, 73.88 78.74, 140.67 1.71 M13.4 148.12 C60.86 92.3, 110.55 37.5, 140.67 1.71 M26.13 157.86 C66.87 106.01, 111.96 57.94, 161.28 2.39 M26.13 157.86 C72.23 105.08, 117.72 52.69, 161.28 2.39 M43.45 162.32 C77.91 121.29, 112.63 83.19, 182.54 2.32 M43.45 162.32 C86.07 112.08, 129.94 61.2, 182.54 2.32 M64.71 162.25 C96.85 125.09, 130.28 86.41, 203.8 2.26 M64.71 162.25 C91.91 128.75, 120.69 95.49, 203.8 2.26 M85.97 162.18 C130.23 113.28, 170.89 65.18, 225.06 2.19 M85.97 162.18 C126.68 111.73, 170.25 63.67, 225.06 2.19 M107.23 162.12 C138.39 125.24, 171.63 90.69, 246.32 2.12 M107.23 162.12 C160.04 102.22, 212.61 42.32, 246.32 2.12 M128.49 162.05 C166.23 118.87, 203.37 75.02, 267.58 2.05 M128.49 162.05 C179.25 102.54, 230.84 42.49, 267.58 2.05 M149.75 161.98 C199.97 102.42, 252.73 43.8, 288.84 1.98 M149.75 161.98 C196.78 108.37, 243.37 53.99, 288.84 1.98 M171.01 161.91 C206.51 125.02, 237.94 84.82, 310.1 1.91 M171.01 161.91 C214.55 110.6, 259.11 60.89, 310.1 1.91 M192.27 161.84 C242.71 103.84, 293.75 49.18, 331.36 1.84 M192.27 161.84 C225.56 123.76, 257.7 85.59, 331.36 1.84 M212.88 162.53 C248.11 122.95, 283.41 81.9, 352.62 1.77 M212.88 162.53 C246.65 122.72, 281.3 83.69, 352.62 1.77 M234.14 162.46 C285.6 104.37, 333.11 49.72, 375.19 0.19 M234.14 162.46 C283.55 102.94, 334.53 44.98, 375.19 0.19 M255.4 162.39 C308.73 101.31, 361.33 40.74, 392.51 4.65 M255.4 162.39 C286.41 125.92, 320.01 87.24, 392.51 4.65 M276.66 162.32 C316.06 117.08, 351.42 75.64, 405.24 14.4 M276.66 162.32 C304.1 131.84, 331.38 100.31, 405.24 14.4 M297.92 162.25 C324.97 130.22, 352.13 101.7, 412.73 30.18 M297.92 162.25 C329.02 127.2, 359.88 91.23, 412.73 30.18 M319.18 162.18 C342.48 139.4, 364.95 113.77, 412.99 54.26 M319.18 162.18 C342.5 133.76, 367.33 104.75, 412.99 54.26 M340.44 162.11 C358.07 143.57, 377.69 122.74, 413.26 78.34 M340.44 162.11 C363.21 136.34, 385.72 109.78, 413.26 78.34 M361.7 162.04 C384.01 138.08, 403.74 114.93, 413.53 102.42 M361.7 162.04 C371.68 148.66, 383.78 137.73, 413.53 102.42 M394.77 148.39 C397.11 145.06, 399.22 144.4, 405.92 135.56 M394.77 148.39 C397.43 146.56, 399.76 142.38, 405.92 135.56 M12.26 147.47 C12.26 147.47, 12.26 147.47, 12.26 147.47 M12.26 147.47 C12.26 147.47, 12.26 147.47, 12.26 147.47 M41.63 151.79 C28.83 142.22, 18.26 131.06, 0.87 116.36 M41.63 151.79 C33.75 143.36, 23.62 136.59, 0.87 116.36 M65.71 151.53 C42.52 129.31, 18.93 110.52, 0.8 95.1 M65.71 151.53 C46.72 135.13, 28.28 120.26, 0.8 95.1 M90.54 151.91 C62.1 128.24, 32.83 101.85, 0.73 73.84 M90.54 151.91 C59.35 125.24, 27.34 98.37, 0.73 73.84 M114.63 151.65 C83.74 123.84, 46.9 92, 0.67 52.58 M114.63 151.65 C81.72 124.33, 49.25 93.93, 0.67 52.58 M139.46 152.04 C92.41 113.4, 50.47 72.95, 1.35 31.98 M139.46 152.04 C107.02 122.64, 73.82 93.77, 1.35 31.98 M163.54 151.77 C107.31 104.04, 52 57.89, 4.3 13.34 M163.54 151.77 C110.24 104.87, 54.72 58.06, 4.3 13.34 M187.63 151.51 C127.87 98.78, 69.89 49.91, 16.31 2.58 M187.63 151.51 C141.12 109.19, 92 68.07, 16.31 2.58 M212.46 151.9 C170.37 117, 129.64 81.36, 37.37 -0.31 M212.46 151.9 C167.39 114.93, 123.76 76.05, 37.37 -0.31 M236.54 151.63 C170.85 97.51, 107.41 40.31, 61.45 -0.58 M236.54 151.63 C188.68 109.13, 141.58 67.8, 61.45 -0.58 M261.38 152.02 C216.11 113.46, 172.97 72.95, 85.53 -0.84 M261.38 152.02 C191.62 88.77, 121.19 28.93, 85.53 -0.84 M285.46 151.75 C245.77 116.32, 205.99 82.62, 110.37 -0.45 M285.46 151.75 C219.51 94.82, 152.42 37.21, 110.37 -0.45 M309.54 151.49 C242.4 92.62, 174.68 31.32, 134.45 -0.72 M309.54 151.49 C264.04 111.58, 216.48 70.06, 134.45 -0.72 M334.38 151.88 C285.94 107.92, 237.67 66.85, 159.29 -0.33 M334.38 151.88 C270.1 96.09, 207.59 41.26, 159.29 -0.33 M358.46 151.61 C319.89 116.13, 284.12 83.1, 183.37 -0.6 M358.46 151.61 C301.18 103.16, 245.1 52.83, 183.37 -0.6 M381.79 150.69 C319.55 99.54, 259.8 46.81, 207.45 -0.86 M381.79 150.69 C319.72 97.97, 259.81 45.43, 207.45 -0.86 M398.32 143.86 C332.24 86.46, 268.08 29.55, 232.29 -0.47 M398.32 143.86 C346.68 98.17, 294.87 52.99, 232.29 -0.47 M405.8 129.16 C350.96 81.44, 301.18 38.37, 256.37 -0.74 M405.8 129.16 C361.51 91.64, 317.28 52.33, 256.37 -0.74 M407.24 109.21 C359.65 65.45, 309.99 25.51, 281.21 -0.35 M407.24 109.21 C359.79 69.14, 312.7 30.05, 281.21 -0.35 M407.17 87.95 C374.89 60.67, 346.79 33.9, 305.29 -0.62 M407.17 87.95 C377.21 61.6, 346.85 37.07, 305.29 -0.62 M407.1 66.69 C381.94 46, 358.13 22.96, 329.37 -0.88 M407.1 66.69 C383.19 46.28, 357.17 23.4, 329.37 -0.88 M407.04 45.43 C391.88 30.16, 374.75 19.01, 354.21 -0.49 M407.04 45.43 C393.41 31.98, 378.19 20.43, 354.21 -0.49 M406.97 24.17 C399.26 15.54, 388.08 9.64, 379.04 -0.1 M406.97 24.17 C397.14 15.07, 387.5 7.25, 379.04 -0.1" stroke="#ffc9c9" stroke-width="2" fill="none"></path><path d="M32 0 C116.39 2.69, 201.92 1.22, 374.93 0 M32 0 C155.72 -0.52, 278.98 -0.27, 374.93 0 M374.93 0 C395.6 1.75, 408.84 12.01, 406.93 32 M374.93 0 C396.9 -0.38, 409.03 11.74, 406.93 32 M406.93 32 C407.75 55.26, 408.35 83.6, 406.93 120.17 M406.93 32 C407.36 58.03, 407.96 85.44, 406.93 120.17 M406.93 120.17 C405.78 140.04, 394.81 152.45, 374.93 152.17 M406.93 120.17 C406.52 141.94, 395.98 151.41, 374.93 152.17 M374.93 152.17 C295.52 152.67, 215.58 152.85, 32 152.17 M374.93 152.17 C251.82 153.32, 129.1 153.11, 32 152.17 M32 152.17 C12.19 150.7, 0.17 141.54, 0 120.17 M32 152.17 C10.25 153.57, 1.77 142.56, 0 120.17 M0 120.17 C-0.49 99.65, 1.17 81.82, 0 32 M0 120.17 C-0.22 99.97, 0.35 80.5, 0 32 M0 32 C1.43 11.18, 12.13 1.38, 32 0 M0 32 C0.19 12.51, 8.43 -1.78, 32 0" stroke="#1e1e1e" stroke-width="4" fill="none"></path></g><g transform="translate(102.89808057627806 812.828253736151) rotate(0 163.77120971679688 71.08609945036781)"><text x="163.77120971679688" y="0" font-family="Virgil, Segoe UI Emoji" font-size="113.7377591205885px" fill="#1e1e1e" text-anchor="middle" style="white-space: pre;" direction="ltr" dominant-baseline="text-before-edge">Reset</text></g><g stroke-linecap="round" transform="translate(1918.0251050633783 2210.076098469669) rotate(0 141.72969142196098 102.5)"><path d="M32.79 37.78 C32.79 37.78, 32.79 37.78, 32.79 37.78 M32.79 37.78 C32.79 37.78, 32.79 37.78, 32.79 37.78 M6.02 80.76 C25.32 57.29, 41.67 40.13, 56.54 22.65 M6.02 80.76 C24.4 60.19, 43.01 36.85, 56.54 22.65 M2.22 97.33 C19.37 78.47, 36.17 56.99, 76.36 12.05 M2.22 97.33 C23.22 73.54, 44.12 49.98, 76.36 12.05 M2.35 109.37 C22.85 85.12, 46.95 59.37, 89.61 9 M2.35 109.37 C26.38 82.77, 48.35 55.39, 89.61 9 M4.46 119.15 C36.3 87.37, 66.7 49.51, 103.52 5.19 M4.46 119.15 C32.22 86.75, 60.9 54.52, 103.52 5.19 M6.56 128.93 C33.3 98.77, 62.26 66.75, 116.77 2.13 M6.56 128.93 C52.63 77.79, 95.46 26.01, 116.77 2.13 M9.31 137.95 C52.32 87.81, 93.7 39.11, 127.4 2.1 M9.31 137.95 C41.35 101.91, 74.59 65.74, 127.4 2.1 M14.04 144.71 C60.07 95.45, 100.21 43.08, 138.03 2.07 M14.04 144.71 C56.48 92.52, 100.7 43.4, 138.03 2.07 M19.42 150.71 C63.76 101.15, 110.11 50.5, 148.66 2.03 M19.42 150.71 C69.97 93.21, 119.56 35.06, 148.66 2.03 M24.15 157.47 C61.78 113.65, 99.67 73.81, 159.95 1.24 M24.15 157.47 C50.67 126.09, 78.9 92.92, 159.95 1.24 M29.53 163.47 C74.32 111.76, 118.31 62.03, 169.27 2.72 M29.53 163.47 C59.59 129.8, 89.63 96.12, 169.27 2.72 M34.91 169.47 C76.43 123.55, 114.39 79.9, 177.93 4.95 M34.91 169.47 C63.31 135.65, 93.31 101.91, 177.93 4.95 M41.6 173.97 C99.27 109.75, 154.45 43.74, 186.59 7.18 M41.6 173.97 C77.8 130.9, 113.99 89.64, 186.59 7.18 M48.95 177.71 C96.65 123.58, 144.27 66.24, 195.25 9.41 M48.95 177.71 C92.22 127.7, 135.72 77.2, 195.25 9.41 M55.65 182.2 C89.04 143.02, 121.93 106.55, 203.92 11.64 M55.65 182.2 C92.54 139.72, 129.94 95.37, 203.92 11.64 M63 185.94 C124.04 118.45, 182.1 52.4, 211.92 14.62 M63 185.94 C94.15 148.83, 125.75 112.6, 211.92 14.62 M69.69 190.43 C113.7 143.33, 155.87 94.47, 219.27 18.36 M69.69 190.43 C117.42 136.9, 164.93 84.13, 219.27 18.36 M77.7 193.42 C126.26 137.27, 175.45 82.73, 225.97 22.85 M77.7 193.42 C132.21 131.02, 186.55 68.26, 225.97 22.85 M86.36 195.65 C122.02 157.41, 154.22 118.7, 233.32 26.59 M86.36 195.65 C134.42 137.51, 184.3 80.02, 233.32 26.59 M95.02 197.88 C145.7 141.63, 196.52 82.23, 240.01 31.09 M95.02 197.88 C146.71 137.61, 198.34 79.02, 240.01 31.09 M103.03 200.86 C147.61 149.1, 192.96 96.59, 247.36 34.82 M103.03 200.86 C159.21 136.98, 215.52 71.1, 247.36 34.82 M111.69 203.09 C167.51 138.4, 222.09 76.55, 253.4 40.07 M111.69 203.09 C150.72 159.75, 187.41 114.46, 253.4 40.07 M121.01 204.57 C167.84 151.75, 215.12 95.31, 258.12 46.83 M121.01 204.57 C169.62 148.15, 219.61 92.19, 258.12 46.83 M131.64 204.53 C180.82 148.8, 233.44 88.48, 263.5 52.83 M131.64 204.53 C182.28 146.44, 231.33 88.05, 263.5 52.83 M142.27 204.5 C188.24 150.7, 236.57 94.25, 268.23 59.59 M142.27 204.5 C176.32 164.39, 211.16 123.8, 268.23 59.59 M152.9 204.46 C190.07 163.6, 225.37 119.31, 273.61 65.6 M152.9 204.46 C183.36 169.68, 214.26 133.92, 273.61 65.6 M164.18 203.67 C207.26 155.56, 251.65 106.31, 276.37 74.62 M164.18 203.67 C189.2 177.82, 211.38 149.29, 276.37 74.62 M176.12 202.13 C213.87 163.12, 250.12 119.02, 279.13 83.64 M176.12 202.13 C199.8 177.56, 222.22 152.3, 279.13 83.64 M190.04 198.32 C209.09 177.1, 225.49 157.88, 281.23 93.42 M190.04 198.32 C220.4 162.14, 252.99 124.22, 281.23 93.42 M203.95 194.51 C222.74 173.12, 240.08 154.72, 283.33 103.19 M203.95 194.51 C230.51 165.67, 254.51 135.38, 283.33 103.19 M220.48 187.69 C244.04 162.59, 265.85 133.41, 280.18 119.01 M220.48 187.69 C239.37 164.28, 261.43 140.49, 280.18 119.01 M243.58 173.31 C256.73 158.41, 267.72 144.03, 277.03 134.82 M243.58 173.31 C255.1 159.01, 266.74 144.94, 277.03 134.82" stroke="#eebefa" stroke-width="1" fill="none"></path><path d="M115.3 2.24 C130.18 -1.35, 149.5 -0.57, 165.58 1.38 C181.67 3.33, 197.83 8.14, 211.82 13.92 C225.8 19.69, 239.19 27.34, 249.48 36.05 C259.77 44.77, 267.92 55.46, 273.57 66.23 C279.21 77.01, 282.94 89.03, 283.33 100.72 C283.72 112.41, 281.36 125.08, 275.92 136.35 C270.47 147.62, 260.94 159.21, 250.66 168.31 C240.37 177.41, 227.92 185.09, 214.21 190.95 C200.5 196.8, 184.28 201.19, 168.4 203.46 C152.52 205.73, 134.84 206.48, 118.91 204.56 C102.99 202.64, 87.13 197.94, 72.83 191.92 C58.53 185.9, 43.89 177.53, 33.13 168.44 C22.36 159.36, 13.64 148.41, 8.23 137.39 C2.82 126.37, 0.56 113.9, 0.68 102.33 C0.81 90.76, 3.65 78.7, 8.99 67.95 C14.32 57.21, 22.4 46.97, 32.7 37.88 C43 28.78, 55.94 19.61, 70.79 13.39 C85.64 7.16, 111.97 2.44, 121.81 0.52 C131.65 -1.41, 129.48 0, 129.83 1.84 M142.63 0.97 C157.85 -0.7, 174.6 3.46, 189.56 7.1 C204.53 10.73, 219.9 15.62, 232.44 22.77 C244.98 29.92, 256.45 39.72, 264.8 49.98 C273.15 60.24, 279.95 72.62, 282.55 84.35 C285.15 96.09, 283.42 108.57, 280.41 120.39 C277.4 132.21, 272.34 144.97, 264.5 155.28 C256.65 165.59, 245.75 174.73, 233.32 182.25 C220.89 189.76, 205.41 196.61, 189.91 200.36 C174.41 204.11, 156.4 204.95, 140.3 204.77 C124.2 204.58, 108.4 203.35, 93.32 199.26 C78.23 195.17, 61.96 187.62, 49.79 180.22 C37.63 172.81, 28.2 165.09, 20.3 154.83 C12.41 144.57, 5.53 130.2, 2.45 118.66 C-0.63 107.12, -0.88 97.01, 1.83 85.58 C4.54 74.16, 10.43 60.51, 18.71 50.13 C26.98 39.75, 39.12 30.5, 51.46 23.29 C63.79 16.08, 77.58 10.84, 92.72 6.85 C107.85 2.86, 133.87 0.09, 142.27 -0.65 C150.67 -1.4, 143.02 0.6, 143.13 2.39" stroke="#1e1e1e" stroke-width="2" fill="none"></path></g><g transform="translate(1993.834812882757 2277.597653398048) rotate(0 65.70195770263672 35)"><text x="65.70195770263672" y="0" font-family="Virgil, Segoe UI Emoji" font-size="28px" fill="#1e1e1e" text-anchor="middle" style="white-space: pre;" direction="ltr" dominant-baseline="text-before-edge">button</text><text x="65.70195770263672" y="35" font-family="Virgil, Segoe UI Emoji" font-size="28px" fill="#1e1e1e" text-anchor="middle" style="white-space: pre;" direction="ltr" dominant-baseline="text-before-edge">id="reset"</text></g><g stroke-linecap="round" transform="translate(1243.0247709744322 2211.965331150346) rotate(0 149.83088923182322 102.5)"><path d="M9.96 65.63 C9.96 65.63, 9.96 65.63, 9.96 65.63 M9.96 65.63 C9.96 65.63, 9.96 65.63, 9.96 65.63 M4.19 84.46 C22.97 64.7, 37.36 44.88, 55.36 25.6 M4.19 84.46 C20.31 64.22, 38.5 43.52, 55.36 25.6 M0.38 101.03 C16.77 80.89, 30.7 64.55, 75.83 14.24 M0.38 101.03 C23.27 75.39, 45.15 48.83, 75.83 14.24 M2.48 110.81 C38.33 71.36, 73.3 29.44, 89.74 10.43 M2.48 110.81 C35.44 70.45, 70.83 32.39, 89.74 10.43 M3.93 121.34 C25.44 95.33, 48.53 69.47, 103.65 6.63 M3.93 121.34 C25.99 98.05, 46.75 72.87, 103.65 6.63 M5.37 131.87 C33.05 95.07, 66.97 61.67, 118.22 2.06 M5.37 131.87 C46.76 86.34, 88.84 38.46, 118.22 2.06 M10.1 138.63 C41.55 105.65, 71.28 69.87, 129.5 1.27 M10.1 138.63 C42.45 100.1, 75.9 61.39, 129.5 1.27 M14.82 145.39 C53.92 104.18, 88.08 60.6, 140.13 1.24 M14.82 145.39 C53.07 100.75, 90.94 57.95, 140.13 1.24 M19.55 152.15 C65.51 100.14, 110.04 44.59, 151.42 0.45 M19.55 152.15 C57.2 110.21, 94.23 66.38, 151.42 0.45 M24.28 158.9 C70.59 105.74, 115.81 51.45, 162.05 0.42 M24.28 158.9 C64.06 114.42, 103.3 69.62, 162.05 0.42 M30.31 164.15 C58.11 129.48, 87.55 97.38, 172.02 1.14 M30.31 164.15 C83.37 103.99, 137.47 42.06, 172.02 1.14 M37.01 168.65 C79.89 116.86, 124.62 68.95, 181.34 2.61 M37.01 168.65 C83.97 113.55, 130.05 58.66, 181.34 2.61 M43.7 173.14 C100 109.49, 152.85 48.53, 190 4.84 M43.7 173.14 C74.18 136.62, 106.88 100.37, 190 4.84 M50.39 177.63 C82.87 141.01, 114.69 101.5, 199.32 6.31 M50.39 177.63 C94.6 127.68, 139 77.39, 199.32 6.31 M57.09 182.13 C89.93 144.36, 123.23 103.09, 208.64 7.79 M57.09 182.13 C93.3 143.02, 128.27 101.87, 208.64 7.79 M64.44 185.87 C125.73 117.43, 186.11 47.13, 217.3 10.02 M64.44 185.87 C121.24 119.52, 176.92 53.18, 217.3 10.02 M72.44 188.85 C127.82 123.98, 185.64 58.52, 224.65 13.76 M72.44 188.85 C126.5 127.27, 180.84 66.51, 224.65 13.76 M80.45 191.84 C116.39 149.88, 152.25 109.07, 232 17.5 M80.45 191.84 C139.08 125.08, 197.56 56.93, 232 17.5 M89.11 194.07 C128.97 147.73, 171.21 102.96, 239.35 21.24 M89.11 194.07 C130.44 144.8, 172.72 97.17, 239.35 21.24 M97.12 197.05 C127.11 163.11, 158.85 126.34, 246.7 24.98 M97.12 197.05 C139.96 143.83, 186.08 92.75, 246.7 24.98 M105.12 200.03 C137.21 161.25, 172.09 124.77, 254.05 28.71 M105.12 200.03 C136.34 166.38, 167.86 129.73, 254.05 28.71 M114.44 201.51 C163.19 145.72, 209.39 94.84, 260.09 33.96 M114.44 201.51 C158.17 148.86, 204.89 96.82, 260.09 33.96 M124.42 202.23 C173.01 145.55, 221.82 91.81, 266.12 39.21 M124.42 202.23 C168.14 151.41, 212.93 99.65, 266.12 39.21 M133.73 203.7 C188.25 138.35, 242.15 75.97, 271.51 45.21 M133.73 203.7 C183.38 146.21, 232.41 90.52, 271.51 45.21 M143.71 204.42 C174.82 170.53, 202.78 133.28, 277.54 50.46 M143.71 204.42 C177 162.73, 212.99 122.1, 277.54 50.46 M153.68 205.14 C184.16 168.51, 212.26 133.11, 282.93 56.47 M153.68 205.14 C179.49 175.59, 203.95 145.34, 282.93 56.47 M164.97 204.36 C195.55 169.05, 230.16 131.8, 287.65 63.22 M164.97 204.36 C203.42 159.85, 240.26 116.85, 287.65 63.22 M177.57 202.06 C205.45 171.22, 231.97 137.98, 291.06 71.49 M177.57 202.06 C216.79 153.98, 258.67 108.62, 291.06 71.49 M189.51 200.51 C223.14 158.82, 259.54 120.72, 295.13 79 M189.51 200.51 C232.05 153.37, 272.28 107.94, 295.13 79 M202.11 198.21 C237.74 155.87, 275.85 114.69, 298.55 87.27 M202.11 198.21 C236.68 157.82, 273.08 117.29, 298.55 87.27 M217.33 192.9 C243.02 166.16, 265.48 141.05, 298.68 99.31 M217.33 192.9 C235 172.17, 253.21 153.07, 298.68 99.31 M233.21 186.82 C249.91 171.1, 262.66 150.62, 296.85 113.62 M233.21 186.82 C253.49 164.84, 270.78 143.26, 296.85 113.62 M251.71 177.73 C261.01 163.22, 275.96 150.95, 291.73 131.7 M251.71 177.73 C260.9 168.25, 269.18 157.66, 291.73 131.7" stroke="#eebefa" stroke-width="1" fill="none"></path><path d="M167.46 -0.16 C183.28 -0.55, 201.31 4.4, 216.14 9.37 C230.97 14.34, 245.05 21.56, 256.46 29.67 C267.88 37.77, 277.47 48.12, 284.62 58 C291.78 67.87, 297.55 78.1, 299.39 88.93 C301.23 99.76, 299.09 112.1, 295.67 122.99 C292.26 133.88, 287.14 144.57, 278.9 154.26 C270.66 163.95, 258.62 173.86, 246.21 181.12 C233.81 188.39, 219.33 193.84, 204.48 197.87 C189.64 201.89, 173.23 204.9, 157.14 205.27 C141.04 205.65, 123.52 203.42, 107.91 200.13 C92.3 196.84, 76.95 191.87, 63.48 185.56 C50.01 179.25, 36.79 171.08, 27.09 162.27 C17.39 153.45, 9.85 143.4, 5.29 132.67 C0.73 121.93, -1.08 109.03, -0.28 97.84 C0.52 86.64, 3.98 75.66, 10.07 65.5 C16.16 55.33, 25.64 45.35, 36.24 36.86 C46.85 28.37, 59.74 20.44, 73.68 14.54 C87.61 8.65, 100.16 3.18, 119.86 1.49 C139.57 -0.2, 176.23 2.73, 191.9 4.42 C207.57 6.1, 214.63 9.86, 213.88 11.62 M212.4 10.62 C227.23 13.66, 241.2 20.21, 253.06 27.61 C264.93 35.01, 276.22 44.89, 283.58 55.02 C290.94 65.16, 294.94 77.48, 297.22 88.44 C299.5 99.4, 299.95 109.93, 297.27 120.76 C294.6 131.6, 289.08 143.71, 281.19 153.44 C273.29 163.18, 262.34 172.07, 249.93 179.18 C237.53 186.3, 221.71 191.74, 206.76 196.14 C191.81 200.54, 176.25 204.62, 160.24 205.57 C144.23 206.52, 126.55 204.8, 110.69 201.87 C94.83 198.93, 78.64 194.08, 65.06 187.96 C51.48 181.84, 38.75 174.28, 29.24 165.14 C19.72 156.01, 12.78 143.89, 7.97 133.18 C3.16 122.48, 0.19 111.74, 0.37 100.91 C0.56 90.08, 3.62 78.45, 9.06 68.18 C14.5 57.92, 22.67 48.35, 33.01 39.33 C43.35 30.31, 57.38 19.96, 71.08 14.08 C84.77 8.2, 99.34 6.42, 115.2 4.05 C131.07 1.67, 150.05 -0.95, 166.29 -0.2 C182.52 0.55, 204.85 6.8, 212.61 8.54 C220.38 10.28, 214.13 8.73, 212.88 10.24" stroke="#1e1e1e" stroke-width="2" fill="none"></path></g><g transform="translate(1296.757275377738 2279.486886078725) rotate(0 96.15194702148438 35)"><text x="96.15194702148438" y="0" font-family="Virgil, Segoe UI Emoji" font-size="28px" fill="#1e1e1e" text-anchor="middle" style="white-space: pre;" direction="ltr" dominant-baseline="text-before-edge">button</text><text x="96.15194702148438" y="35" font-family="Virgil, Segoe UI Emoji" font-size="28px" fill="#1e1e1e" text-anchor="middle" style="white-space: pre;" direction="ltr" dominant-baseline="text-before-edge">id="decrement"</text></g></svg>